<svg id="svg" version="1.1" xmlns="http://www.w3.org/2000/svg" xmlns:xlink="http://www.w3.org/1999/xlink" width="400" height="400" viewBox="0, 0, 400,400"><g id="svgg"><path id="path0" d="M294.800 182.470 C 290.778 183.137,288.210 183.672,287.281 184.038 C 286.776 184.237,285.931 184.400,285.405 184.400 C 284.878 184.400,284.336 184.580,284.200 184.800 C 284.064 185.020,283.601 185.200,283.171 185.200 C 282.741 185.200,282.077 185.359,281.695 185.553 C 281.313 185.748,280.550 186.082,280.000 186.297 C 274.509 188.439,268.460 192.338,264.099 196.548 C 261.159 199.385,256.800 204.738,256.800 205.511 C 256.800 205.743,256.664 205.993,256.498 206.067 C 256.234 206.184,254.105 210.358,253.167 212.600 C 249.200 222.081,248.780 242.670,252.418 249.295 C 252.628 249.677,252.800 250.264,252.800 250.600 C 252.800 250.936,252.959 251.523,253.153 251.905 C 253.348 252.287,253.729 253.140,254.000 253.800 C 254.271 254.460,254.684 255.360,254.917 255.800 C 255.149 256.240,255.713 257.320,256.170 258.200 C 256.626 259.080,257.225 260.038,257.500 260.329 C 257.775 260.619,258.000 261.011,258.000 261.200 C 258.000 261.389,258.225 261.781,258.500 262.072 C 258.775 262.363,259.709 263.501,260.577 264.601 C 262.565 267.123,266.907 271.456,269.000 273.009 C 269.880 273.661,270.690 274.308,270.800 274.446 C 271.178 274.920,279.001 279.887,281.400 281.176 C 282.720 281.886,283.971 282.631,284.180 282.833 C 284.389 283.035,284.884 283.200,285.280 283.200 C 285.676 283.200,286.000 283.380,286.000 283.600 C 286.000 283.820,286.253 284.000,286.562 284.000 C 286.871 284.000,287.816 284.355,288.662 284.789 C 290.421 285.691,295.539 288.000,295.781 288.000 C 295.869 288.000,297.350 288.637,299.071 289.417 C 300.792 290.196,302.560 290.983,303.000 291.166 C 303.440 291.349,304.610 291.867,305.600 292.317 C 306.590 292.768,308.208 293.465,309.196 293.868 C 315.225 296.326,323.088 300.902,326.024 303.662 C 336.328 313.348,331.552 329.914,317.300 333.922 C 316.365 334.185,314.835 334.625,313.900 334.900 C 311.601 335.576,299.660 335.554,297.000 334.868 C 286.088 332.055,278.345 326.871,272.404 318.400 C 271.864 317.630,271.279 316.820,271.104 316.600 C 270.929 316.380,270.370 315.570,269.862 314.800 C 268.980 313.462,267.482 313.024,266.817 313.910 C 266.584 314.221,265.852 314.655,262.400 316.528 C 261.190 317.185,259.722 318.055,259.138 318.461 C 258.554 318.867,257.966 319.200,257.830 319.200 C 257.695 319.200,256.856 319.660,255.966 320.221 C 255.076 320.783,253.730 321.593,252.974 322.021 C 250.892 323.201,249.173 324.186,247.352 325.243 C 246.446 325.770,244.152 327.100,242.254 328.200 C 240.356 329.300,238.802 330.380,238.802 330.600 C 238.799 331.512,244.878 340.943,246.408 342.400 C 246.523 342.510,247.501 343.647,248.580 344.926 C 250.245 346.901,254.049 350.451,257.602 353.347 C 259.863 355.190,264.968 358.239,269.195 360.271 C 271.728 361.489,274.113 362.646,274.495 362.843 C 274.877 363.039,275.516 363.200,275.915 363.200 C 276.314 363.200,276.811 363.349,277.020 363.530 C 277.362 363.828,278.518 364.211,282.200 365.245 C 294.191 368.615,311.260 369.234,323.800 366.755 C 326.492 366.222,329.184 365.592,330.400 365.208 C 330.950 365.035,332.210 364.671,333.200 364.401 C 334.190 364.130,335.360 363.758,335.800 363.574 C 350.858 357.264,359.683 348.934,365.222 335.800 C 368.292 328.521,369.653 310.657,367.596 304.640 C 367.378 304.002,367.200 303.081,367.200 302.593 C 367.200 297.338,360.925 285.758,354.629 279.394 C 349.431 274.139,345.611 271.308,337.000 266.326 C 335.388 265.393,324.306 259.906,321.800 258.799 C 319.141 257.624,317.176 256.786,316.200 256.410 C 315.760 256.240,314.590 255.733,313.600 255.283 C 312.610 254.832,310.991 254.135,310.002 253.732 C 292.361 246.549,286.600 240.904,286.600 230.800 C 286.600 221.843,291.100 216.339,300.013 214.396 C 303.026 213.740,310.554 214.192,313.000 215.177 C 319.277 217.704,323.091 221.037,327.385 227.749 L 328.813 229.982 331.106 228.526 C 332.368 227.725,334.425 226.379,335.678 225.535 C 336.931 224.691,338.146 224.000,338.378 224.000 C 338.610 224.000,338.800 223.820,338.800 223.600 C 338.800 223.380,338.971 223.200,339.180 223.200 C 339.390 223.200,342.765 221.103,346.680 218.540 C 350.596 215.977,354.520 213.475,355.400 212.980 C 357.509 211.795,357.523 211.425,355.565 208.383 C 348.844 197.937,339.850 190.045,330.400 186.303 C 329.850 186.085,329.087 185.748,328.705 185.553 C 328.323 185.359,327.659 185.200,327.229 185.200 C 326.799 185.200,326.348 185.040,326.227 184.844 C 326.106 184.649,325.421 184.393,324.704 184.276 C 323.987 184.159,321.870 183.772,320.000 183.417 C 318.130 183.061,315.599 182.597,314.376 182.385 C 311.638 181.911,297.809 181.971,294.800 182.470 M180.900 184.263 C 180.503 184.425,180.399 198.180,180.394 251.133 C 180.389 309.397,180.311 318.128,179.779 320.400 C 178.958 323.907,178.366 325.596,177.515 326.862 C 177.122 327.446,176.799 328.076,176.798 328.262 C 176.792 329.317,172.174 333.031,169.800 333.890 C 164.143 335.935,155.153 335.598,150.151 333.154 C 147.366 331.793,139.200 323.353,139.200 321.836 C 139.200 321.677,138.750 320.957,138.200 320.236 C 137.650 319.514,137.196 318.761,137.191 318.562 C 137.186 318.363,136.844 317.760,136.430 317.221 L 135.678 316.242 134.047 317.321 C 133.151 317.915,132.325 318.400,132.213 318.400 C 132.100 318.400,130.701 319.238,129.104 320.262 C 127.507 321.287,125.615 322.457,124.900 322.862 C 124.185 323.268,122.925 323.981,122.100 324.447 C 121.275 324.913,120.149 325.588,119.598 325.947 C 119.047 326.306,118.237 326.814,117.798 327.076 C 112.025 330.522,107.575 333.292,106.784 333.932 L 105.806 334.724 107.160 337.262 C 113.364 348.895,124.844 359.438,135.900 363.657 C 136.395 363.845,137.205 364.159,137.700 364.354 C 138.195 364.549,139.410 364.930,140.400 365.201 C 141.390 365.471,142.650 365.838,143.200 366.016 C 149.290 367.986,164.407 368.838,172.200 367.651 C 176.200 367.041,179.499 366.410,180.800 366.004 C 181.350 365.833,182.610 365.471,183.600 365.201 C 184.590 364.930,185.850 364.525,186.400 364.301 C 186.950 364.077,187.760 363.760,188.200 363.597 C 189.844 362.989,193.005 361.389,193.133 361.100 C 193.207 360.935,193.447 360.800,193.668 360.800 C 196.677 360.800,208.441 348.618,211.050 342.800 C 211.297 342.250,211.904 340.900,212.400 339.800 C 213.577 337.189,213.812 336.553,214.401 334.400 C 214.671 333.410,215.033 332.150,215.204 331.600 C 215.523 330.571,215.994 328.281,216.887 323.400 C 217.291 321.194,217.400 306.136,217.400 252.400 L 217.400 184.200 199.400 184.129 C 189.500 184.091,181.175 184.151,180.900 184.263 " stroke="none" fill="#040404" fill-rule="evenodd"></path><path id="path1" d="M0.000 200.000 L 0.000 400.000 200.000 400.000 L 400.000 400.000 400.000 200.000 L 400.000 0.000 200.000 0.000 L 0.000 0.000 0.000 200.000 M310.400 181.202 C 316.322 181.656,321.250 182.371,321.780 182.854 C 321.989 183.044,322.743 183.200,323.456 183.200 C 324.169 183.200,324.864 183.380,325.000 183.600 C 325.136 183.820,325.676 184.000,326.200 184.000 C 326.724 184.000,327.264 184.180,327.400 184.400 C 327.536 184.620,327.999 184.800,328.429 184.800 C 328.859 184.800,329.523 184.957,329.905 185.150 C 332.880 186.648,334.153 187.200,334.638 187.200 C 334.947 187.200,335.202 187.335,335.205 187.500 C 335.207 187.665,335.971 188.160,336.903 188.600 C 338.402 189.308,341.529 191.494,344.361 193.813 C 346.039 195.187,350.016 199.273,351.126 200.763 C 351.714 201.553,352.295 202.290,352.417 202.400 C 352.539 202.510,353.075 203.230,353.608 204.000 C 354.142 204.770,354.722 205.580,354.897 205.800 C 358.322 210.095,358.752 212.223,356.405 213.262 C 355.742 213.555,355.200 213.931,355.200 214.098 C 355.200 214.264,354.964 214.400,354.675 214.400 C 354.387 214.400,353.764 214.760,353.292 215.200 C 352.820 215.640,352.323 216.000,352.188 216.000 C 352.054 216.000,350.808 216.810,349.421 217.800 C 348.034 218.790,346.696 219.600,346.449 219.600 C 346.202 219.600,346.000 219.780,346.000 220.000 C 346.000 220.220,345.810 220.400,345.578 220.400 C 345.346 220.400,344.096 221.120,342.800 222.000 C 341.504 222.880,340.254 223.600,340.022 223.600 C 339.790 223.600,339.600 223.780,339.600 224.000 C 339.600 224.220,339.330 224.400,339.000 224.400 C 338.670 224.400,338.400 224.580,338.400 224.800 C 338.400 225.020,338.164 225.200,337.875 225.200 C 337.587 225.200,337.002 225.515,336.575 225.900 C 335.377 226.981,330.276 230.259,329.320 230.562 C 328.498 230.823,326.402 228.813,326.399 227.762 C 326.399 227.563,325.859 226.770,325.200 226.000 C 324.541 225.230,324.001 224.446,324.001 224.257 C 323.998 223.225,315.816 216.800,314.503 216.800 C 314.227 216.800,314.000 216.620,314.000 216.400 C 314.000 216.180,313.538 216.000,312.974 216.000 C 312.409 216.000,311.601 215.815,311.178 215.588 C 310.160 215.044,299.199 215.041,298.654 215.586 C 298.426 215.814,297.907 216.000,297.501 216.000 C 296.655 216.000,292.773 218.391,291.416 219.748 C 286.542 224.622,285.726 233.563,289.603 239.605 C 291.097 241.933,293.872 244.800,294.631 244.800 C 294.944 244.800,295.200 244.935,295.200 245.101 C 295.200 245.266,296.055 245.847,297.100 246.391 C 298.145 246.935,299.090 247.485,299.200 247.612 C 299.409 247.855,300.889 248.567,307.200 251.461 C 309.290 252.420,311.313 253.383,311.695 253.602 C 312.077 253.821,312.662 254.000,312.995 254.000 C 313.328 254.000,313.600 254.180,313.600 254.400 C 313.600 254.620,313.872 254.800,314.205 254.800 C 314.538 254.800,315.123 254.959,315.505 255.153 C 315.887 255.348,316.740 255.729,317.400 256.000 C 318.060 256.271,318.913 256.652,319.295 256.847 C 319.677 257.041,320.262 257.200,320.595 257.200 C 320.928 257.200,321.200 257.380,321.200 257.600 C 321.200 257.820,321.472 258.000,321.805 258.000 C 322.138 258.000,322.723 258.171,323.105 258.380 C 323.487 258.590,325.960 259.790,328.600 261.048 C 331.240 262.306,333.460 263.484,333.533 263.667 C 333.607 263.850,334.012 264.000,334.433 264.000 C 334.855 264.000,335.200 264.180,335.200 264.400 C 335.200 264.620,335.560 264.800,336.000 264.800 C 336.440 264.800,336.800 264.959,336.800 265.153 C 336.800 265.348,337.115 265.613,337.500 265.742 C 338.751 266.164,343.813 269.307,346.800 271.519 C 352.440 275.694,357.465 280.606,360.386 284.800 C 360.923 285.570,361.475 286.290,361.613 286.400 C 361.751 286.510,362.119 287.185,362.430 287.900 C 362.741 288.615,363.131 289.200,363.298 289.200 C 363.464 289.200,363.600 289.560,363.600 290.000 C 363.600 290.440,363.780 290.800,364.000 290.800 C 364.220 290.800,364.400 291.036,364.400 291.325 C 364.400 291.614,364.760 292.595,365.200 293.506 C 365.640 294.416,366.000 295.404,366.000 295.701 C 366.000 295.997,366.143 296.411,366.318 296.620 C 366.989 297.422,368.360 302.904,369.016 307.400 C 369.555 311.104,369.669 320.693,369.205 323.400 C 368.011 330.369,366.906 334.301,365.175 337.738 C 364.749 338.584,364.400 339.529,364.400 339.838 C 364.400 340.147,364.220 340.400,364.000 340.400 C 363.780 340.400,363.600 340.760,363.600 341.200 C 363.600 341.640,363.420 342.000,363.200 342.000 C 362.980 342.000,362.800 342.188,362.800 342.418 C 362.800 344.116,352.467 356.000,350.990 356.000 C 350.702 356.000,350.407 356.152,350.333 356.338 C 350.142 356.823,346.185 359.600,345.686 359.600 C 345.455 359.600,345.207 359.736,345.133 359.902 C 345.060 360.068,343.740 360.807,342.200 361.544 C 340.660 362.281,339.087 363.045,338.705 363.242 C 338.323 363.439,337.738 363.600,337.405 363.600 C 337.072 363.600,336.800 363.780,336.800 364.000 C 336.800 364.220,336.260 364.400,335.600 364.400 C 334.940 364.400,334.400 364.580,334.400 364.800 C 334.400 365.020,333.961 365.200,333.424 365.200 C 332.887 365.200,332.348 365.360,332.227 365.556 C 332.106 365.751,331.421 366.002,330.704 366.113 C 329.987 366.224,328.410 366.606,327.200 366.961 C 319.028 369.359,301.511 369.959,291.400 368.186 C 287.614 367.523,283.750 366.626,283.420 366.335 C 283.211 366.151,282.684 366.000,282.248 366.000 C 281.396 366.000,279.033 365.320,277.905 364.751 C 277.523 364.558,276.848 364.400,276.405 364.400 C 275.962 364.400,275.600 364.220,275.600 364.000 C 275.600 363.780,275.238 363.600,274.795 363.600 C 274.352 363.600,273.677 363.440,273.295 363.244 C 272.913 363.048,271.700 362.485,270.600 361.993 C 269.500 361.501,268.150 360.897,267.600 360.650 C 267.050 360.403,266.510 360.111,266.400 360.001 C 266.290 359.890,265.395 359.361,264.411 358.824 C 262.764 357.926,257.664 354.525,257.200 354.015 C 257.090 353.894,256.280 353.264,255.400 352.614 C 253.334 351.089,247.311 345.066,245.786 343.000 C 245.136 342.120,244.499 341.310,244.370 341.200 C 243.933 340.827,240.131 335.011,239.041 333.048 C 237.668 330.575,237.809 329.764,239.800 328.675 C 240.680 328.194,241.490 327.710,241.600 327.600 C 241.840 327.360,245.035 325.603,246.297 325.017 C 246.790 324.787,247.195 324.465,247.197 324.300 C 247.199 324.135,247.384 324.000,247.609 324.000 C 247.833 324.000,248.688 323.577,249.509 323.059 C 252.870 320.938,258.037 318.000,258.406 318.000 C 258.622 318.000,258.800 317.854,258.800 317.675 C 258.800 317.496,259.430 317.102,260.200 316.800 C 260.970 316.498,261.600 316.104,261.600 315.925 C 261.600 315.746,261.945 315.600,262.367 315.600 C 262.788 315.600,263.193 315.465,263.267 315.300 C 263.434 314.924,265.564 313.625,266.500 313.329 C 266.885 313.207,267.200 312.948,267.200 312.753 C 267.200 311.139,269.538 312.623,271.327 315.372 C 274.317 319.968,279.783 325.917,282.477 327.509 C 283.095 327.874,283.600 328.314,283.600 328.486 C 283.600 328.659,283.763 328.800,283.962 328.800 C 284.160 328.800,285.375 329.391,286.662 330.113 C 289.748 331.846,293.078 333.200,294.253 333.200 C 294.774 333.200,295.200 333.380,295.200 333.600 C 295.200 333.820,296.089 334.000,297.176 334.000 C 298.263 334.000,299.264 334.180,299.400 334.400 C 299.547 334.638,302.063 334.800,305.600 334.800 C 309.137 334.800,311.653 334.638,311.800 334.400 C 311.936 334.180,312.836 334.000,313.800 334.000 C 314.764 334.000,315.664 333.820,315.800 333.600 C 315.936 333.380,316.363 333.200,316.749 333.200 C 317.668 333.200,321.324 331.425,323.598 329.875 C 326.735 327.738,328.221 325.774,329.949 321.481 C 330.509 320.092,330.550 312.140,330.000 311.800 C 329.780 311.664,329.600 311.209,329.600 310.789 C 329.600 309.394,327.541 306.295,325.200 304.165 C 322.853 302.030,321.771 301.201,321.333 301.200 C 321.077 301.200,320.807 301.065,320.733 300.900 C 320.534 300.452,318.742 299.467,313.200 296.759 C 310.450 295.415,307.887 294.155,307.505 293.958 C 307.123 293.761,306.538 293.600,306.205 293.600 C 305.872 293.600,305.600 293.420,305.600 293.200 C 305.600 292.980,305.328 292.800,304.995 292.800 C 304.662 292.800,304.077 292.635,303.695 292.434 C 303.313 292.232,302.325 291.782,301.500 291.434 C 300.675 291.085,299.325 290.509,298.500 290.153 C 297.675 289.796,296.370 289.238,295.600 288.912 C 271.470 278.682,259.711 268.828,252.752 253.000 C 248.873 244.177,247.770 230.566,250.060 219.800 C 250.573 217.392,252.393 211.951,252.863 211.420 C 253.048 211.211,253.200 210.716,253.200 210.320 C 253.200 209.924,253.380 209.600,253.600 209.600 C 253.820 209.600,254.000 209.240,254.000 208.800 C 254.000 208.360,254.180 208.000,254.400 208.000 C 254.620 208.000,254.800 207.640,254.800 207.200 C 254.800 206.760,254.980 206.400,255.200 206.400 C 255.420 206.400,255.600 206.164,255.600 205.875 C 255.600 205.587,255.960 204.964,256.400 204.492 C 256.840 204.020,257.200 203.480,257.200 203.292 C 257.200 203.104,257.515 202.602,257.900 202.175 C 258.285 201.748,259.074 200.765,259.652 199.989 C 261.027 198.146,264.285 194.863,265.991 193.600 C 266.735 193.050,267.806 192.224,268.371 191.765 C 269.541 190.815,274.894 187.601,276.400 186.943 C 276.950 186.703,277.940 186.282,278.600 186.007 C 279.260 185.732,280.113 185.348,280.495 185.153 C 280.877 184.959,281.541 184.800,281.971 184.800 C 282.401 184.800,282.864 184.620,283.000 184.400 C 283.136 184.180,283.777 184.000,284.424 184.000 C 285.071 184.000,285.600 183.840,285.600 183.644 C 285.600 183.448,286.185 183.189,286.900 183.069 C 287.615 182.949,289.550 182.563,291.200 182.212 C 293.665 181.687,297.652 181.287,304.600 180.867 C 305.040 180.840,307.650 180.991,310.400 181.202 M218.277 253.100 C 218.117 327.046,218.081 328.452,216.295 330.238 C 216.133 330.400,216.000 331.123,216.000 331.843 C 216.000 332.563,215.820 333.264,215.600 333.400 C 215.380 333.536,215.200 334.076,215.200 334.600 C 215.200 335.124,215.020 335.664,214.800 335.800 C 214.580 335.936,214.400 336.399,214.400 336.829 C 214.400 337.259,214.242 337.923,214.048 338.305 C 213.855 338.687,212.757 340.890,211.608 343.200 C 209.838 346.759,208.345 349.044,206.208 351.462 C 204.111 353.835,199.992 357.769,198.656 358.675 C 197.745 359.292,196.910 359.888,196.800 359.999 C 196.407 360.394,194.188 361.653,193.500 361.871 C 193.115 361.993,192.800 362.252,192.800 362.447 C 192.800 362.641,192.547 362.800,192.238 362.800 C 191.753 362.800,190.480 363.352,187.505 364.850 C 187.123 365.043,186.459 365.200,186.029 365.200 C 185.599 365.200,185.136 365.380,185.000 365.600 C 184.864 365.820,184.349 366.000,183.856 366.000 C 183.363 366.000,182.789 366.146,182.580 366.324 C 182.210 366.640,178.894 367.435,173.600 368.477 C 170.079 369.170,153.567 369.156,149.800 368.456 C 146.215 367.791,142.395 366.827,141.505 366.362 C 141.123 366.163,140.459 366.000,140.029 366.000 C 139.599 366.000,139.136 365.820,139.000 365.600 C 138.864 365.380,138.324 365.200,137.800 365.200 C 137.276 365.200,136.736 365.020,136.600 364.800 C 136.464 364.580,136.003 364.400,135.576 364.400 C 135.149 364.400,134.800 364.220,134.800 364.000 C 134.800 363.780,134.458 363.600,134.041 363.600 C 133.159 363.600,126.879 360.364,125.476 359.187 C 125.214 358.968,124.100 358.120,123.000 357.303 C 118.374 353.870,114.192 349.600,111.205 345.264 C 110.652 344.462,109.987 343.578,109.726 343.300 C 109.466 343.023,109.138 342.436,108.999 341.998 C 108.860 341.559,108.612 341.200,108.448 341.200 C 108.284 341.200,107.902 340.570,107.600 339.800 C 107.298 339.030,106.904 338.400,106.725 338.400 C 106.546 338.400,106.400 338.040,106.400 337.600 C 106.400 337.160,106.220 336.800,106.000 336.800 C 105.780 336.800,105.600 336.440,105.600 336.000 C 105.600 335.560,105.420 335.200,105.200 335.200 C 104.549 335.200,104.744 334.216,105.500 333.688 C 107.732 332.128,113.241 328.800,113.589 328.800 C 113.815 328.800,114.000 328.641,114.000 328.447 C 114.000 328.252,114.315 327.993,114.700 327.871 C 115.385 327.654,117.604 326.396,118.000 326.000 C 118.396 325.604,120.615 324.346,121.300 324.129 C 121.685 324.007,122.000 323.748,122.000 323.553 C 122.000 323.359,122.178 323.200,122.396 323.200 C 122.614 323.200,124.099 322.362,125.696 321.338 C 127.293 320.313,129.160 319.160,129.845 318.775 C 130.530 318.390,131.520 317.833,132.045 317.538 C 132.570 317.242,133.090 316.910,133.200 316.800 C 135.134 314.866,136.418 315.297,138.287 318.504 C 140.887 322.967,141.383 323.784,141.619 324.000 C 141.740 324.110,142.277 324.830,142.813 325.600 C 143.348 326.370,144.332 327.540,144.999 328.200 C 147.153 330.333,148.621 331.297,153.295 333.650 C 153.677 333.843,154.586 334.000,155.315 334.000 C 156.044 334.000,156.834 334.194,157.072 334.432 C 157.702 335.062,166.212 334.444,168.200 333.625 C 172.888 331.691,177.200 327.754,177.200 325.405 C 177.200 325.072,177.360 324.800,177.555 324.800 C 177.750 324.800,178.026 324.215,178.170 323.500 C 178.313 322.785,178.634 321.300,178.883 320.200 C 179.208 318.767,179.374 299.208,179.468 251.200 C 179.540 214.350,179.684 183.975,179.787 183.700 C 179.934 183.310,184.187 183.200,199.201 183.200 L 218.428 183.200 218.277 253.100 " stroke="none" fill="#f3e31b" fill-rule="evenodd"></path><path id="path2" d="M180.349 183.900 C 179.863 184.519,179.873 184.543,180.436 184.104 C 180.916 183.730,185.533 183.582,199.236 183.500 L 217.400 183.392 199.149 183.296 C 182.176 183.207,180.860 183.249,180.349 183.900 M330.800 186.200 C 331.350 186.514,331.980 186.772,332.200 186.772 C 332.420 186.772,332.150 186.514,331.600 186.200 C 331.050 185.886,330.420 185.628,330.200 185.628 C 329.980 185.628,330.250 185.886,330.800 186.200 M347.000 197.200 C 348.750 198.960,350.271 200.400,350.381 200.400 C 350.491 200.400,349.150 198.960,347.400 197.200 C 345.650 195.440,344.129 194.000,344.019 194.000 C 343.909 194.000,345.250 195.440,347.000 197.200 M262.786 197.100 L 260.600 199.400 262.900 197.214 C 264.165 196.011,265.200 194.976,265.200 194.914 C 265.200 194.617,264.818 194.963,262.786 197.100 M342.081 221.772 C 340.223 223.085,339.962 223.461,341.531 222.562 C 342.263 222.143,343.050 221.575,343.280 221.300 C 343.871 220.593,343.593 220.702,342.081 221.772 M249.314 235.400 C 249.317 236.500,249.395 236.903,249.487 236.295 C 249.579 235.686,249.577 234.786,249.482 234.295 C 249.387 233.803,249.311 234.300,249.314 235.400 M291.400 242.800 C 292.259 243.680,293.052 244.400,293.162 244.400 C 293.272 244.400,292.659 243.680,291.800 242.800 C 290.941 241.920,290.148 241.200,290.038 241.200 C 289.928 241.200,290.541 241.920,291.400 242.800 M354.400 278.600 C 355.595 279.810,356.663 280.800,356.773 280.800 C 356.883 280.800,355.995 279.810,354.800 278.600 C 353.605 277.390,352.537 276.400,352.427 276.400 C 352.317 276.400,353.205 277.390,354.400 278.600 M368.920 312.000 C 368.920 313.210,368.995 313.705,369.087 313.100 C 369.178 312.495,369.178 311.505,369.087 310.900 C 368.995 310.295,368.920 310.790,368.920 312.000 M330.931 316.600 C 330.933 318.140,331.005 318.721,331.092 317.891 C 331.179 317.061,331.177 315.801,331.089 315.091 C 331.000 314.381,330.929 315.060,330.931 316.600 M217.720 316.400 C 217.720 317.610,217.795 318.105,217.887 317.500 C 217.978 316.895,217.978 315.905,217.887 315.300 C 217.795 314.695,217.720 315.190,217.720 316.400 M368.893 320.800 C 368.893 321.570,368.975 321.885,369.076 321.500 C 369.176 321.115,369.176 320.485,369.076 320.100 C 368.975 319.715,368.893 320.030,368.893 320.800 M115.800 327.600 C 115.140 328.037,114.780 328.392,115.000 328.388 C 115.401 328.382,117.576 326.823,117.200 326.812 C 117.090 326.808,116.460 327.163,115.800 327.600 M303.516 335.097 C 304.899 335.175,307.059 335.174,308.316 335.095 C 309.572 335.016,308.440 334.952,305.800 334.953 C 303.160 334.953,302.132 335.018,303.516 335.097 M159.300 368.697 C 160.785 368.774,163.215 368.774,164.700 368.697 C 166.185 368.620,164.970 368.557,162.000 368.557 C 159.030 368.557,157.815 368.620,159.300 368.697 M301.100 368.689 C 301.815 368.778,302.985 368.778,303.700 368.689 C 304.415 368.601,303.830 368.528,302.400 368.528 C 300.970 368.528,300.385 368.601,301.100 368.689 M309.500 368.689 C 310.215 368.778,311.385 368.778,312.100 368.689 C 312.815 368.601,312.230 368.528,310.800 368.528 C 309.370 368.528,308.785 368.601,309.500 368.689 " stroke="none" fill="#938509" fill-rule="evenodd"></path><path id="path3" d="M301.121 181.899 C 303.388 181.970,306.988 181.970,309.121 181.898 C 311.255 181.826,309.400 181.768,305.000 181.768 C 300.600 181.768,298.855 181.827,301.121 181.899 M293.000 182.400 L 291.400 182.686 293.000 182.696 C 293.880 182.701,295.140 182.568,295.800 182.400 L 297.000 182.095 295.800 182.104 C 295.140 182.109,293.880 182.242,293.000 182.400 M314.000 182.384 C 314.980 182.714,318.695 182.942,318.367 182.653 C 318.275 182.572,317.030 182.403,315.600 182.277 C 313.970 182.134,313.373 182.174,314.000 182.384 M288.600 183.228 C 286.073 183.766,284.484 184.326,285.372 184.366 C 285.796 184.385,286.696 184.230,287.372 184.023 C 288.047 183.815,289.230 183.473,290.000 183.263 C 291.734 182.791,290.770 182.766,288.600 183.228 M319.600 183.200 C 320.150 183.376,321.050 183.517,321.600 183.513 C 322.498 183.506,322.478 183.474,321.400 183.200 C 319.708 182.769,318.256 182.769,319.600 183.200 M180.448 184.142 C 180.117 184.541,180.025 202.484,180.100 251.642 L 180.202 318.600 180.301 251.508 L 180.400 184.415 181.300 184.197 C 181.795 184.076,190.120 184.028,199.800 184.089 L 217.400 184.200 217.602 249.400 L 217.804 314.600 217.902 249.733 C 217.956 214.056,217.891 184.581,217.757 184.233 C 217.418 183.348,181.180 183.260,180.448 184.142 M323.200 183.994 C 323.530 184.211,324.235 184.391,324.767 184.394 C 326.051 184.402,325.725 184.175,324.000 183.858 C 323.015 183.677,322.778 183.718,323.200 183.994 M283.000 184.800 C 282.229 185.131,282.231 185.145,283.076 185.172 C 283.558 185.187,284.064 185.020,284.200 184.800 C 284.492 184.327,284.101 184.327,283.000 184.800 M336.800 189.339 C 336.800 189.431,337.933 190.244,339.317 191.146 C 342.193 193.020,342.508 193.285,347.400 197.960 L 351.000 201.400 347.400 197.676 C 343.482 193.623,336.800 188.367,336.800 189.339 M268.200 192.635 L 267.000 193.666 268.300 192.806 C 269.015 192.333,269.600 191.868,269.600 191.773 C 269.600 191.473,269.431 191.578,268.200 192.635 M262.749 197.500 C 260.898 199.425,258.971 201.630,258.467 202.400 C 257.632 203.675,257.668 203.657,258.869 202.200 C 259.595 201.320,261.643 199.115,263.420 197.300 C 265.197 195.485,266.531 194.000,266.383 194.000 C 266.235 194.000,264.600 195.575,262.749 197.500 M351.533 202.600 C 354.352 206.312,357.230 211.040,357.062 211.683 C 356.959 212.078,357.038 212.300,357.237 212.177 C 358.090 211.650,353.481 203.681,351.333 201.968 C 350.854 201.585,350.919 201.791,351.533 202.600 M255.186 207.501 C 254.345 209.187,254.340 209.200,254.547 209.200 C 254.805 209.200,256.042 206.708,255.869 206.536 C 255.795 206.462,255.488 206.896,255.186 207.501 M252.077 214.538 C 251.815 215.264,251.609 216.114,251.619 216.428 C 251.630 216.743,251.912 216.218,252.247 215.261 C 252.582 214.305,252.788 213.455,252.705 213.371 C 252.622 213.288,252.339 213.813,252.077 214.538 M349.705 216.507 C 347.013 218.287,344.879 219.812,344.961 219.895 C 345.082 220.016,354.554 213.951,355.167 213.361 C 356.051 212.508,353.728 213.847,349.705 216.507 M300.315 214.328 C 299.938 214.478,301.956 214.600,304.800 214.600 C 307.644 214.600,309.662 214.478,309.285 214.328 C 308.908 214.179,306.890 214.056,304.800 214.056 C 302.710 214.056,300.692 214.179,300.315 214.328 M295.000 216.120 C 285.395 221.144,283.241 234.544,290.775 242.400 L 292.885 244.600 291.061 242.477 C 287.685 238.549,287.000 236.578,287.000 230.800 C 287.000 222.746,290.072 218.184,297.225 215.611 C 298.612 215.112,299.038 214.835,298.400 214.847 C 297.850 214.856,296.320 215.429,295.000 216.120 M310.833 214.944 C 311.305 215.350,313.243 215.593,313.010 215.216 C 312.868 214.987,312.283 214.800,311.710 214.800 C 311.136 214.800,310.742 214.865,310.833 214.944 M315.200 216.525 C 316.190 217.032,317.427 217.680,317.948 217.964 C 318.470 218.247,318.784 218.297,318.646 218.075 C 318.355 217.604,314.444 215.599,313.821 215.602 C 313.590 215.603,314.210 216.018,315.200 216.525 M251.049 217.815 C 250.912 218.173,250.815 218.766,250.834 219.133 C 250.853 219.500,251.027 219.269,251.221 218.620 C 251.598 217.358,251.465 216.733,251.049 217.815 M319.200 218.496 C 319.200 218.568,320.443 219.897,321.961 221.449 C 323.480 223.001,325.549 225.560,326.559 227.136 C 327.569 228.711,328.491 230.000,328.610 230.000 C 328.967 230.000,326.087 225.679,323.983 223.058 C 322.349 221.022,319.200 218.019,319.200 218.496 M250.256 221.284 C 250.121 221.788,250.030 222.740,250.053 223.400 C 250.081 224.228,250.197 223.984,250.426 222.613 C 250.776 220.523,250.674 219.726,250.256 221.284 M333.502 226.904 C 331.138 228.462,329.273 229.806,329.357 229.891 C 329.482 230.015,337.766 224.747,338.367 224.162 C 339.192 223.359,337.045 224.568,333.502 226.904 M249.404 228.100 C 249.259 229.695,249.300 232.620,249.496 234.600 C 249.835 238.031,249.851 237.895,249.841 231.700 C 249.830 224.390,249.780 223.978,249.404 228.100 M250.040 240.233 C 250.062 241.095,250.227 242.250,250.407 242.800 C 250.611 243.421,250.651 242.891,250.512 241.400 C 250.254 238.621,249.982 237.949,250.040 240.233 M250.833 244.600 C 250.822 245.040,251.067 246.210,251.379 247.200 C 252.112 249.524,252.135 248.415,251.409 245.800 C 251.104 244.700,250.845 244.160,250.833 244.600 M293.207 244.737 C 293.216 245.074,297.227 247.707,297.427 247.506 C 297.510 247.424,296.592 246.707,295.389 245.915 C 294.185 245.122,293.203 244.592,293.207 244.737 M298.000 247.779 C 298.000 247.889,298.540 248.259,299.200 248.600 C 299.860 248.941,300.400 249.131,300.400 249.021 C 300.400 248.911,299.860 248.541,299.200 248.200 C 298.540 247.859,298.000 247.669,298.000 247.779 M252.028 249.476 C 252.118 250.515,252.744 251.396,252.772 250.524 C 252.787 250.042,252.620 249.536,252.400 249.400 C 252.180 249.264,252.013 249.298,252.028 249.476 M306.600 252.181 C 310.688 254.098,311.392 254.399,311.775 254.391 C 312.009 254.386,311.660 254.129,311.000 253.819 C 306.912 251.902,306.208 251.601,305.825 251.609 C 305.591 251.614,305.940 251.871,306.600 252.181 M312.400 254.565 C 312.400 254.809,314.831 256.000,315.328 256.000 C 315.551 256.000,315.649 255.916,315.546 255.813 C 315.233 255.500,312.400 254.377,312.400 254.565 M254.986 256.700 C 255.335 257.415,255.706 258.000,255.810 258.000 C 256.208 258.000,255.952 257.363,255.167 256.400 L 254.352 255.400 254.986 256.700 M324.538 260.047 C 325.384 260.493,326.168 260.765,326.281 260.652 C 326.476 260.457,323.780 259.180,323.251 259.218 C 323.113 259.227,323.692 259.600,324.538 260.047 M257.437 261.000 C 257.797 261.550,258.157 262.000,258.237 262.000 C 258.317 262.000,258.178 261.550,257.927 261.000 C 257.677 260.450,257.316 260.000,257.127 260.000 C 256.937 260.000,257.076 260.450,257.437 261.000 M326.800 260.943 C 326.800 261.022,328.735 262.047,331.100 263.222 C 333.465 264.396,335.878 265.681,336.462 266.078 C 337.582 266.840,338.424 267.061,337.780 266.425 C 337.077 265.731,326.800 260.600,326.800 260.943 M259.133 263.500 C 259.567 264.105,261.244 265.965,262.861 267.634 C 265.934 270.806,265.791 270.430,262.627 267.017 C 261.616 265.926,260.386 264.442,259.895 263.719 C 259.403 262.997,258.853 262.404,258.673 262.403 C 258.493 262.401,258.700 262.895,259.133 263.500 M339.000 267.411 C 339.440 267.769,340.340 268.326,341.000 268.650 C 342.122 269.201,342.148 269.197,341.400 268.589 C 340.960 268.231,340.060 267.674,339.400 267.350 C 338.278 266.799,338.252 266.803,339.000 267.411 M344.800 270.946 C 344.800 271.056,345.340 271.530,346.000 272.000 C 346.660 272.470,347.200 272.764,347.200 272.654 C 347.200 272.544,346.660 272.070,346.000 271.600 C 345.340 271.130,344.800 270.836,344.800 270.946 M268.784 273.155 C 269.765 274.041,270.650 274.684,270.750 274.583 C 270.851 274.482,270.858 274.353,270.767 274.296 C 270.675 274.239,269.790 273.596,268.800 272.868 L 267.000 271.543 268.784 273.155 M348.600 273.809 C 349.260 274.404,350.340 275.344,351.000 275.899 C 351.660 276.454,353.201 277.828,354.424 278.954 C 355.647 280.079,355.171 279.541,353.366 277.757 C 351.561 275.974,349.481 274.112,348.742 273.621 L 347.400 272.727 348.600 273.809 M271.200 274.995 C 271.200 275.216,276.617 278.879,278.000 279.592 C 278.550 279.876,278.910 280.010,278.800 279.890 C 278.407 279.460,271.200 274.818,271.200 274.995 M280.000 280.767 C 280.963 281.552,281.600 281.808,281.600 281.410 C 281.600 281.306,281.015 280.935,280.300 280.586 L 279.000 279.952 280.000 280.767 M282.400 282.020 C 283.787 282.961,284.578 283.235,283.600 282.436 C 283.050 281.986,282.420 281.617,282.200 281.615 C 281.980 281.613,282.070 281.796,282.400 282.020 M358.265 283.400 C 359.931 285.394,360.513 285.814,359.233 284.100 C 357.684 282.024,357.311 281.600,357.036 281.600 C 356.884 281.600,357.437 282.410,358.265 283.400 M289.024 285.387 C 289.451 285.710,289.930 285.980,290.088 285.987 C 290.247 285.994,291.327 286.432,292.488 286.959 C 295.952 288.533,297.714 289.220,297.874 289.059 C 297.958 288.976,297.435 288.672,296.713 288.383 C 294.564 287.525,290.252 285.617,289.505 285.194 C 288.454 284.598,288.144 284.722,289.024 285.387 M362.200 289.200 C 362.541 289.860,362.911 290.400,363.021 290.400 C 363.131 290.400,362.941 289.860,362.600 289.200 C 362.259 288.540,361.889 288.000,361.779 288.000 C 361.669 288.000,361.859 288.540,362.200 289.200 M313.396 296.187 C 315.814 297.372,317.853 298.281,317.927 298.206 C 318.096 298.038,309.811 293.994,309.342 294.016 C 309.154 294.025,310.978 295.002,313.396 296.187 M364.810 294.433 C 364.849 295.051,366.769 300.077,366.783 299.594 C 366.801 298.953,365.382 294.849,365.016 294.483 C 364.897 294.364,364.805 294.342,364.810 294.433 M318.600 298.690 C 318.820 298.900,319.720 299.476,320.600 299.970 C 321.480 300.465,321.840 300.570,321.400 300.204 C 320.506 299.461,317.972 298.091,318.600 298.690 M322.600 301.060 C 324.959 303.354,328.451 306.425,327.990 305.800 C 327.163 304.679,324.825 302.490,323.400 301.502 C 322.740 301.045,322.380 300.846,322.600 301.060 M367.450 303.200 C 367.573 304.190,367.825 305.900,368.010 307.000 L 368.345 309.000 368.187 306.800 C 368.101 305.590,367.849 303.880,367.628 303.000 L 367.226 301.400 367.450 303.200 M368.546 316.000 C 368.552 321.649,368.605 322.219,368.916 319.957 C 369.136 318.360,369.133 315.748,368.909 313.357 L 368.539 309.400 368.546 316.000 M331.000 316.600 C 331.000 319.215,331.114 320.825,331.253 320.177 C 331.392 319.530,331.505 317.920,331.505 316.600 C 331.505 315.280,331.392 313.670,331.253 313.023 C 331.114 312.375,331.000 313.985,331.000 316.600 M267.600 313.244 C 267.106 313.599,267.134 313.632,267.758 313.428 C 268.214 313.279,268.834 313.464,269.315 313.890 C 270.095 314.584,270.101 314.579,269.560 313.700 C 268.949 312.704,268.497 312.599,267.600 313.244 M263.717 315.334 C 260.133 317.446,259.357 318.183,262.600 316.395 C 263.920 315.668,265.404 314.876,265.897 314.636 C 266.390 314.396,266.795 314.065,266.797 313.900 C 266.801 313.497,266.968 313.419,263.717 315.334 M217.344 318.400 C 217.344 320.490,217.412 321.345,217.494 320.300 C 217.576 319.255,217.576 317.545,217.494 316.500 C 217.412 315.455,217.344 316.310,217.344 318.400 M270.473 315.800 C 270.723 316.350,271.084 316.800,271.273 316.800 C 271.463 316.800,271.324 316.350,270.963 315.800 C 270.603 315.250,270.243 314.800,270.163 314.800 C 270.083 314.800,270.222 315.250,270.473 315.800 M133.684 317.066 C 132.740 317.635,132.048 318.181,132.147 318.280 C 132.246 318.379,133.081 317.961,134.002 317.351 L 135.678 316.242 136.430 317.221 C 136.844 317.760,137.187 318.380,137.193 318.600 C 137.199 318.820,137.668 319.540,138.235 320.200 L 139.266 321.400 138.433 320.138 C 137.975 319.444,137.600 318.752,137.600 318.600 C 137.600 318.171,135.979 315.998,135.673 316.016 C 135.523 316.024,134.628 316.497,133.684 317.066 M272.496 318.595 C 272.993 319.362,273.544 319.992,273.720 319.995 C 273.897 319.998,273.560 319.370,272.973 318.600 C 271.600 316.800,271.332 316.797,272.496 318.595 M258.700 318.229 C 258.095 318.557,257.600 318.910,257.600 319.013 C 257.600 319.399,258.232 319.157,259.200 318.400 C 260.389 317.470,260.211 317.409,258.700 318.229 M179.422 320.222 C 179.272 321.025,179.228 321.762,179.326 321.860 C 179.424 321.957,179.627 321.381,179.778 320.578 C 179.928 319.775,179.972 319.038,179.874 318.940 C 179.776 318.843,179.573 319.419,179.422 320.222 M129.000 319.838 C 128.560 320.175,126.808 321.282,125.106 322.298 C 123.404 323.314,122.089 324.222,122.183 324.316 C 122.277 324.410,122.887 324.108,123.539 323.644 C 124.190 323.180,124.825 322.800,124.948 322.800 C 125.168 322.800,129.964 319.769,130.342 319.391 C 130.809 318.924,129.721 319.286,129.000 319.838 M255.064 320.400 C 254.024 321.060,253.079 321.600,252.965 321.600 C 252.851 321.600,252.095 322.050,251.286 322.600 C 250.477 323.150,249.991 323.596,250.207 323.591 C 250.423 323.586,251.050 323.230,251.600 322.800 C 252.150 322.370,252.723 322.014,252.873 322.009 C 253.208 321.998,257.200 319.536,257.200 319.340 C 257.200 319.079,256.959 319.198,255.064 320.400 M274.806 321.390 C 277.074 324.104,281.427 328.049,283.200 328.997 C 284.004 329.426,283.340 328.788,281.800 327.650 C 281.140 327.163,279.073 325.287,277.206 323.482 C 275.339 321.677,274.259 320.735,274.806 321.390 M139.200 321.915 C 139.200 322.088,139.748 322.853,140.419 323.615 L 141.638 325.000 140.566 323.300 C 139.503 321.614,139.200 321.307,139.200 321.915 M329.895 323.196 C 329.548 324.078,329.349 324.800,329.453 324.800 C 329.723 324.800,330.878 321.945,330.686 321.752 C 330.597 321.664,330.241 322.313,329.895 323.196 M248.200 324.400 C 247.540 324.837,247.180 325.192,247.400 325.188 C 247.801 325.182,249.976 323.623,249.600 323.612 C 249.490 323.608,248.860 323.963,248.200 324.400 M367.918 325.200 C 367.230 329.854,367.220 330.115,367.814 327.800 C 368.153 326.480,368.375 324.950,368.307 324.400 C 368.223 323.717,368.100 323.970,367.918 325.200 M119.684 325.466 C 118.740 326.035,118.048 326.581,118.147 326.680 C 118.324 326.857,121.600 324.833,121.600 324.547 C 121.600 324.321,121.517 324.360,119.684 325.466 M216.302 326.200 C 216.144 327.300,215.919 328.830,215.803 329.600 C 215.687 330.370,215.872 330.010,216.214 328.800 C 216.556 327.590,216.780 326.060,216.712 325.400 C 216.615 324.455,216.528 324.626,216.302 326.200 M245.096 326.150 C 243.175 327.331,242.638 327.889,244.200 327.081 C 245.454 326.433,247.145 325.226,246.800 325.225 C 246.690 325.225,245.923 325.641,245.096 326.150 M326.457 328.142 C 325.516 329.100,323.638 330.540,322.283 331.342 C 320.927 332.144,319.972 332.800,320.160 332.800 C 321.044 332.800,324.802 330.240,326.585 328.423 C 327.677 327.310,328.479 326.400,328.368 326.400 C 328.257 326.400,327.397 327.184,326.457 328.142 M145.607 329.643 C 148.123 332.111,151.959 334.421,153.475 334.381 C 153.874 334.370,153.404 334.083,152.432 333.743 C 150.089 332.923,147.904 331.512,145.212 329.082 C 143.510 327.547,143.602 327.676,145.607 329.643 M240.900 328.626 C 239.965 329.187,239.200 329.740,239.200 329.855 C 239.200 330.071,241.899 328.538,242.580 327.936 C 243.267 327.328,242.627 327.591,240.900 328.626 M175.481 329.402 C 174.095 331.139,171.502 332.927,169.198 333.733 C 168.209 334.079,167.694 334.370,168.054 334.381 C 170.165 334.443,177.646 329.113,176.732 328.199 C 176.643 328.110,176.080 328.651,175.481 329.402 M113.281 329.372 C 111.321 330.758,111.185 331.065,113.000 330.005 C 114.878 328.910,115.525 328.391,114.980 328.420 C 114.771 328.430,114.007 328.859,113.281 329.372 M108.300 332.453 C 106.723 333.415,105.605 334.371,105.612 334.750 C 105.623 335.330,105.667 335.326,106.022 334.719 C 106.240 334.344,107.495 333.373,108.809 332.562 C 110.869 331.290,111.518 330.792,111.100 330.802 C 111.045 330.804,109.785 331.546,108.300 332.453 M286.400 330.937 C 286.400 331.439,294.017 334.415,295.227 334.386 C 295.542 334.379,294.346 333.867,292.569 333.250 C 290.791 332.632,288.739 331.828,288.007 331.464 C 286.636 330.779,286.400 330.702,286.400 330.937 M215.049 331.815 C 214.912 332.173,214.815 332.766,214.834 333.133 C 214.853 333.500,215.027 333.269,215.221 332.620 C 215.598 331.358,215.465 330.733,215.049 331.815 M366.312 332.400 C 366.176 332.950,365.950 333.850,365.810 334.400 C 365.652 335.022,365.797 334.879,366.192 334.021 C 366.542 333.262,366.768 332.362,366.694 332.021 C 366.610 331.631,366.468 331.772,366.312 332.400 M239.215 332.200 C 239.217 332.420,239.586 333.050,240.036 333.600 C 240.579 334.264,240.715 334.331,240.440 333.800 C 239.766 332.495,239.212 331.772,239.215 332.200 M317.200 333.600 C 315.990 334.011,315.270 334.356,315.600 334.368 C 316.309 334.392,319.065 333.468,319.459 333.074 C 319.818 332.716,319.774 332.726,317.200 333.600 M214.249 334.615 C 214.112 334.973,214.015 335.566,214.034 335.933 C 214.053 336.300,214.227 336.069,214.421 335.420 C 214.798 334.158,214.665 333.533,214.249 334.615 M154.939 334.894 C 155.515 335.261,165.552 335.242,166.487 334.872 C 166.865 334.722,164.317 334.600,160.826 334.600 C 157.335 334.600,154.686 334.732,154.939 334.894 M297.000 334.810 C 297.770 335.131,301.507 335.351,301.167 335.055 C 301.075 334.976,299.920 334.813,298.600 334.693 C 297.151 334.562,296.517 334.608,297.000 334.810 M312.000 334.800 L 310.200 335.080 311.800 335.134 C 312.680 335.163,313.670 335.013,314.000 334.800 C 314.330 334.587,314.420 334.437,314.200 334.466 C 313.980 334.496,312.990 334.646,312.000 334.800 M240.860 335.092 C 241.767 338.279,258.000 355.921,258.000 353.720 C 258.000 353.529,257.505 353.078,256.900 352.718 C 253.678 350.800,246.240 342.654,241.817 336.200 C 241.214 335.320,240.783 334.821,240.860 335.092 M303.700 335.494 C 304.745 335.576,306.455 335.576,307.500 335.494 C 308.545 335.412,307.690 335.344,305.600 335.344 C 303.510 335.344,302.655 335.412,303.700 335.494 M107.400 338.400 C 107.741 339.060,108.111 339.600,108.221 339.600 C 108.331 339.600,108.141 339.060,107.800 338.400 C 107.459 337.740,107.089 337.200,106.979 337.200 C 106.869 337.200,107.059 337.740,107.400 338.400 M363.829 338.861 C 363.483 339.555,363.200 340.225,363.200 340.350 C 363.200 340.697,364.233 339.094,364.521 338.300 C 364.936 337.155,364.506 337.504,363.829 338.861 M212.229 340.061 C 211.636 341.251,211.376 342.357,211.787 341.946 C 212.100 341.633,213.223 338.800,213.035 338.800 C 212.938 338.800,212.575 339.368,212.229 340.061 M109.200 341.406 C 109.200 341.821,111.010 344.390,111.306 344.395 C 111.474 344.398,111.135 343.680,110.553 342.800 C 109.555 341.293,109.200 340.927,109.200 341.406 M112.185 345.582 C 113.869 348.285,118.757 353.327,122.398 356.116 C 123.608 357.042,124.947 358.115,125.374 358.500 C 125.801 358.885,126.333 359.200,126.555 359.200 C 127.074 359.200,126.874 359.028,123.200 356.300 C 120.430 354.243,115.847 349.792,112.989 346.382 C 112.335 345.602,111.973 345.242,112.185 345.582 M359.427 346.200 C 358.840 346.970,358.503 347.598,358.680 347.595 C 358.856 347.592,359.407 346.962,359.904 346.195 C 361.068 344.397,360.800 344.400,359.427 346.200 M206.897 349.219 C 205.751 350.770,204.995 351.927,205.216 351.790 C 205.833 351.409,209.455 346.400,209.114 346.400 C 209.040 346.400,208.043 347.669,206.897 349.219 M356.716 349.500 C 355.959 350.325,354.329 351.945,353.094 353.100 C 351.858 354.255,350.943 355.200,351.060 355.200 C 351.521 355.200,355.627 351.450,356.999 349.775 C 358.773 347.611,358.602 347.445,356.716 349.500 M202.889 353.858 C 202.167 354.596,201.729 355.200,201.914 355.200 C 202.337 355.200,204.602 352.860,204.371 352.662 C 204.277 352.582,203.610 353.120,202.889 353.858 M259.324 354.908 C 260.690 356.075,266.027 359.306,266.239 359.094 C 266.323 359.011,265.628 358.520,264.696 358.003 C 263.763 357.486,261.920 356.363,260.600 355.506 C 259.280 354.649,258.706 354.380,259.324 354.908 M199.400 357.073 C 197.795 358.521,198.413 358.213,200.531 356.509 C 201.153 356.009,201.513 355.607,201.331 355.615 C 201.149 355.623,200.280 356.280,199.400 357.073 M347.296 357.570 C 344.191 359.606,343.174 360.431,344.800 359.593 C 346.176 358.885,350.400 356.012,350.400 355.785 C 350.400 355.526,350.510 355.463,347.296 357.570 M266.800 359.396 C 266.800 359.670,269.249 360.884,269.432 360.701 C 269.519 360.614,268.962 360.244,268.195 359.878 C 267.428 359.512,266.800 359.295,266.800 359.396 M128.400 360.179 C 128.400 360.289,128.940 360.659,129.600 361.000 C 130.260 361.341,130.800 361.531,130.800 361.421 C 130.800 361.311,130.260 360.941,129.600 360.600 C 128.940 360.259,128.400 360.069,128.400 360.179 M140.000 365.388 C 143.530 366.599,144.267 366.799,145.028 366.759 C 145.518 366.733,145.361 366.596,144.600 366.385 C 143.940 366.202,142.680 365.848,141.800 365.598 C 139.178 364.854,138.066 364.725,140.000 365.388 M183.898 365.035 C 183.117 365.817,173.099 367.657,167.000 368.139 C 165.919 368.224,166.179 368.285,167.800 368.326 C 171.521 368.419,179.327 366.996,184.600 365.263 C 185.512 364.963,185.600 364.861,184.967 364.834 C 184.508 364.815,184.028 364.906,183.898 365.035 M280.033 364.944 C 280.125 365.023,280.740 365.208,281.400 365.356 C 282.276 365.552,282.438 365.515,282.000 365.218 C 281.460 364.853,279.632 364.598,280.033 364.944 M330.698 365.035 C 329.995 365.738,319.030 367.708,313.400 368.142 C 312.011 368.249,312.068 368.274,313.835 368.333 C 316.777 368.430,324.510 367.202,329.783 365.800 C 332.375 365.112,332.982 364.800,331.733 364.800 C 331.293 364.800,330.828 364.906,330.698 365.035 M284.600 366.209 C 285.700 366.515,286.960 366.760,287.400 366.755 C 287.840 366.750,287.300 366.496,286.200 366.191 C 285.100 365.885,283.840 365.640,283.400 365.645 C 282.960 365.650,283.500 365.904,284.600 366.209 M146.800 367.180 C 148.579 367.779,154.550 368.481,156.400 368.308 C 158.163 368.143,158.154 368.138,155.973 368.070 C 154.749 368.031,152.769 367.835,151.573 367.633 C 147.887 367.010,145.674 366.800,146.800 367.180 M288.413 366.942 C 288.834 367.372,297.298 368.438,299.129 368.293 L 301.000 368.144 298.773 368.072 C 297.549 368.032,295.569 367.833,294.373 367.629 C 290.707 367.005,288.189 366.714,288.413 366.942 M305.705 368.687 C 306.314 368.779,307.214 368.777,307.705 368.682 C 308.197 368.587,307.700 368.511,306.600 368.514 C 305.500 368.517,305.097 368.595,305.705 368.687 " stroke="none" fill="#746c04" fill-rule="evenodd"></path><path id="path4" d="M300.200 181.190 C 297.483 181.377,298.651 181.456,304.959 181.511 C 309.556 181.552,313.246 181.522,313.159 181.446 C 312.806 181.140,303.567 180.957,300.200 181.190 M292.000 182.000 L 290.600 182.295 292.000 182.307 C 292.770 182.315,293.850 182.176,294.400 182.000 L 295.400 181.680 294.400 181.693 C 293.850 181.700,292.770 181.838,292.000 182.000 M315.600 182.000 C 316.150 182.176,317.230 182.317,318.000 182.314 L 319.400 182.308 317.800 181.977 C 315.663 181.535,314.196 181.550,315.600 182.000 M288.400 182.800 C 287.605 183.314,288.604 183.314,289.800 182.800 L 290.600 182.456 289.800 182.434 C 289.360 182.422,288.730 182.587,288.400 182.800 M320.200 182.800 C 321.311 183.278,322.095 183.278,321.800 182.800 C 321.664 182.580,321.068 182.413,320.476 182.428 C 319.515 182.453,319.486 182.493,320.200 182.800 M179.867 183.467 C 179.720 183.613,179.644 213.808,179.699 250.567 L 179.798 317.400 179.900 250.840 C 179.974 202.453,180.125 184.132,180.450 183.740 C 180.896 183.202,180.375 182.958,179.867 183.467 M217.500 183.465 C 218.096 183.705,218.187 315.009,217.596 320.800 C 217.405 322.670,217.151 325.010,217.032 326.000 C 216.834 327.653,216.870 327.605,217.478 325.400 C 218.546 321.530,218.775 183.185,217.714 183.232 C 217.295 183.250,217.206 183.346,217.500 183.465 M272.264 189.176 C 270.539 190.235,268.829 191.417,268.464 191.804 C 268.099 192.191,268.880 191.789,270.200 190.910 C 271.520 190.032,273.365 188.924,274.300 188.448 C 275.872 187.649,276.428 187.164,275.700 187.226 C 275.535 187.240,273.989 188.117,272.264 189.176 M337.000 188.974 C 337.880 189.496,339.078 190.300,339.663 190.761 C 340.793 191.652,341.406 191.856,341.005 191.208 C 340.732 190.767,336.109 187.993,335.679 188.012 C 335.525 188.019,336.120 188.452,337.000 188.974 M341.622 191.870 C 341.634 192.051,342.174 192.619,342.822 193.130 C 343.470 193.642,343.990 193.912,343.978 193.730 C 343.966 193.549,343.426 192.981,342.778 192.470 C 342.130 191.958,341.610 191.688,341.622 191.870 M263.558 195.699 C 261.378 197.792,258.800 200.823,258.800 201.293 C 258.800 201.485,259.669 200.597,260.732 199.321 C 261.795 198.044,263.344 196.404,264.174 195.675 C 265.005 194.947,265.604 194.271,265.507 194.174 C 265.410 194.077,264.533 194.763,263.558 195.699 M347.581 197.414 C 352.264 202.381,352.222 202.341,351.298 201.000 C 350.362 199.641,346.212 195.302,345.000 194.414 C 344.560 194.092,345.721 195.442,347.581 197.414 M257.657 202.457 C 257.375 202.909,257.232 203.366,257.340 203.473 C 257.447 203.581,257.744 203.278,258.000 202.800 C 258.605 201.670,258.324 201.390,257.657 202.457 M256.057 204.857 C 255.775 205.309,255.632 205.766,255.740 205.873 C 255.847 205.981,256.144 205.678,256.400 205.200 C 257.005 204.070,256.724 203.790,256.057 204.857 M355.037 206.600 C 355.397 207.150,355.757 207.600,355.837 207.600 C 355.917 207.600,355.778 207.150,355.527 206.600 C 355.277 206.050,354.916 205.600,354.727 205.600 C 354.537 205.600,354.676 206.050,355.037 206.600 M357.341 210.212 C 357.758 211.071,357.816 211.654,357.539 212.212 C 357.153 212.990,357.156 212.990,357.774 212.224 C 358.559 211.250,358.555 211.212,357.567 210.000 L 356.752 209.000 357.341 210.212 M301.200 214.791 C 300.597 214.978,302.026 215.100,304.800 215.098 C 308.205 215.095,308.984 215.010,307.800 214.770 C 305.812 214.368,302.527 214.378,301.200 214.791 M250.817 216.900 C 250.536 217.835,250.148 219.122,249.953 219.760 C 249.759 220.398,249.624 221.568,249.653 222.360 C 249.706 223.773,249.713 223.766,250.024 222.000 C 250.355 220.122,250.941 217.639,251.416 216.100 C 251.568 215.605,251.611 215.200,251.511 215.200 C 251.410 215.200,251.098 215.965,250.817 216.900 M311.200 215.600 C 311.530 215.813,312.070 215.988,312.400 215.988 C 312.933 215.988,312.933 215.945,312.400 215.600 C 312.070 215.387,311.530 215.212,311.200 215.212 C 310.667 215.212,310.667 215.255,311.200 215.600 M293.681 217.579 C 291.494 218.993,288.436 222.365,288.410 223.393 C 288.404 223.609,288.884 223.069,289.475 222.193 C 290.860 220.141,292.496 218.612,294.665 217.341 C 296.187 216.449,296.722 216.000,296.262 216.000 C 296.186 216.000,295.025 216.710,293.681 217.579 M317.209 218.235 C 318.414 219.024,319.772 220.014,320.226 220.435 C 320.680 220.856,321.175 221.200,321.327 221.200 C 321.811 221.200,318.655 218.582,317.077 217.675 C 314.704 216.311,314.783 216.646,317.209 218.235 M348.023 218.237 C 345.502 219.808,344.817 220.400,345.520 220.400 C 345.784 220.400,346.000 220.264,346.000 220.098 C 346.000 219.931,346.495 219.573,347.100 219.302 C 348.097 218.854,350.878 216.792,350.400 216.855 C 350.290 216.870,349.221 217.492,348.023 218.237 M249.050 225.250 C 248.728 226.859,248.799 237.112,249.140 238.324 C 249.283 238.832,249.400 235.817,249.400 231.624 C 249.400 227.431,249.378 224.000,249.350 224.000 C 249.322 224.000,249.188 224.563,249.050 225.250 M287.755 224.700 C 287.634 225.085,287.370 225.813,287.167 226.319 C 285.553 230.355,287.729 239.057,291.094 242.024 L 292.200 243.000 291.351 242.000 C 287.547 237.519,286.160 231.255,287.785 225.900 C 288.102 224.855,288.275 224.000,288.168 224.000 C 288.062 224.000,287.876 224.315,287.755 224.700 M324.493 225.200 C 324.768 225.640,325.131 226.000,325.300 226.000 C 325.469 226.000,325.382 225.640,325.107 225.200 C 324.832 224.760,324.469 224.400,324.300 224.400 C 324.131 224.400,324.218 224.760,324.493 225.200 M332.709 228.137 C 331.009 229.245,329.687 230.220,329.771 230.304 C 329.887 230.420,333.218 228.382,335.967 226.513 C 336.058 226.451,336.058 226.338,335.967 226.262 C 335.875 226.185,334.409 227.029,332.709 228.137 M326.424 227.762 C 326.390 228.275,328.367 230.800,328.802 230.800 C 329.001 230.800,328.767 230.384,328.282 229.876 C 327.797 229.369,327.186 228.604,326.924 228.176 C 326.661 227.749,326.436 227.563,326.424 227.762 M249.800 241.600 C 249.871 242.810,250.119 244.520,250.352 245.400 L 250.774 247.000 250.550 245.200 C 250.427 244.210,250.178 242.500,249.998 241.400 L 249.670 239.400 249.800 241.600 M295.800 245.895 C 296.596 246.646,299.200 248.057,299.189 247.733 C 299.183 247.550,298.328 246.977,297.289 246.459 C 296.250 245.942,295.580 245.688,295.800 245.895 M250.828 247.476 C 250.918 248.515,251.544 249.396,251.572 248.524 C 251.587 248.042,251.420 247.536,251.200 247.400 C 250.980 247.264,250.813 247.298,250.828 247.476 M299.600 248.109 C 299.600 248.384,306.454 251.680,306.639 251.494 C 306.730 251.403,305.326 250.625,303.518 249.764 C 299.497 247.850,299.600 247.894,299.600 248.109 M307.200 251.771 C 307.200 252.029,309.660 253.202,310.161 253.183 C 310.403 253.174,309.970 252.822,309.200 252.400 C 307.806 251.637,307.200 251.446,307.200 251.771 M322.800 258.674 C 323.570 259.035,325.269 259.837,326.576 260.456 C 327.882 261.075,329.015 261.519,329.092 261.441 C 329.170 261.363,328.011 260.730,326.517 260.034 C 325.023 259.337,323.487 258.595,323.105 258.384 C 322.723 258.173,322.183 258.004,321.905 258.009 C 321.627 258.014,322.030 258.313,322.800 258.674 M255.600 259.028 C 255.600 260.365,263.983 270.319,266.600 272.090 C 267.260 272.537,266.617 271.754,265.172 270.351 C 261.847 267.123,258.403 263.030,257.006 260.647 C 256.000 258.930,255.600 258.469,255.600 259.028 M329.600 261.771 C 329.600 262.047,332.114 263.220,332.302 263.031 C 332.397 262.936,331.927 262.576,331.257 262.229 C 330.009 261.584,329.600 261.471,329.600 261.771 M337.200 265.790 C 337.200 265.894,337.785 266.265,338.500 266.614 L 339.800 267.248 338.800 266.433 C 337.837 265.648,337.200 265.392,337.200 265.790 M340.033 267.340 C 341.007 268.157,346.439 271.587,346.234 271.255 C 345.941 270.780,340.543 267.200,340.121 267.200 C 339.981 267.200,339.942 267.263,340.033 267.340 M346.969 271.949 C 347.359 272.582,349.601 274.099,349.595 273.727 C 349.592 273.547,348.943 272.981,348.152 272.468 C 347.360 271.955,346.828 271.722,346.969 271.949 M268.969 273.949 C 269.359 274.582,271.601 276.099,271.595 275.727 C 271.592 275.547,270.943 274.981,270.152 274.468 C 269.360 273.955,268.828 273.722,268.969 273.949 M352.918 276.803 C 354.192 277.955,356.037 279.882,357.018 281.085 C 357.998 282.289,358.800 283.095,358.800 282.877 C 358.800 282.305,353.345 276.548,351.858 275.551 C 351.166 275.088,351.643 275.651,352.918 276.803 M273.200 277.001 C 273.200 277.290,278.052 280.481,278.227 280.307 C 278.317 280.216,277.224 279.397,275.796 278.487 C 274.368 277.576,273.200 276.908,273.200 277.001 M279.600 281.167 C 280.563 281.952,281.200 282.208,281.200 281.810 C 281.200 281.706,280.615 281.335,279.900 280.986 L 278.600 280.352 279.600 281.167 M359.200 283.335 C 359.200 283.928,361.674 287.259,361.927 287.006 C 362.064 286.869,361.988 286.631,361.758 286.478 C 361.528 286.325,360.858 285.483,360.270 284.607 C 359.681 283.731,359.200 283.159,359.200 283.335 M290.000 286.205 C 290.000 286.437,292.617 287.652,298.500 290.153 C 299.215 290.456,300.481 291.020,301.314 291.405 C 302.147 291.790,302.919 292.015,303.029 291.905 C 303.139 291.795,302.187 291.292,300.914 290.787 C 299.641 290.282,298.420 289.748,298.200 289.600 C 297.980 289.452,296.720 288.907,295.400 288.390 C 294.080 287.872,292.410 287.123,291.688 286.724 C 290.309 285.963,290.000 285.868,290.000 286.205 M314.000 296.937 C 314.000 297.013,314.855 297.500,315.900 298.019 C 316.945 298.539,318.278 299.287,318.862 299.682 C 319.960 300.425,320.849 300.670,320.180 300.045 C 319.249 299.177,314.000 296.537,314.000 296.937 M367.023 299.200 C 368.845 306.606,369.530 317.037,368.706 324.800 L 368.430 327.400 368.904 325.000 C 370.089 318.989,369.068 303.136,367.241 299.200 L 366.777 298.200 367.023 299.200 M320.803 300.686 C 320.805 300.859,321.255 301.208,321.804 301.463 C 322.352 301.717,322.701 301.763,322.578 301.565 C 322.252 301.037,320.799 300.318,320.803 300.686 M323.222 302.251 C 323.248 302.658,325.600 304.587,325.600 304.202 C 325.600 303.926,325.034 303.344,323.898 302.451 C 323.514 302.149,323.210 302.059,323.222 302.251 M326.008 304.700 C 326.012 304.865,326.642 305.718,327.408 306.596 C 328.173 307.473,328.800 308.408,328.800 308.672 C 328.800 308.936,328.978 309.263,329.195 309.397 C 329.877 309.818,329.144 308.298,327.703 306.300 C 326.363 304.443,325.992 304.093,326.008 304.700 M329.616 310.676 C 329.607 311.158,329.780 311.664,330.000 311.800 C 330.550 312.140,330.509 320.091,329.950 321.481 C 329.063 323.689,328.617 324.618,327.881 325.800 L 327.134 327.000 328.170 325.800 C 330.636 322.944,331.780 314.748,330.216 311.146 C 329.749 310.071,329.628 309.977,329.616 310.676 M269.200 312.555 C 269.200 312.936,272.371 317.600,272.630 317.600 C 272.740 317.600,272.075 316.475,271.153 315.100 C 269.179 312.157,269.200 312.184,269.200 312.555 M136.619 316.658 C 137.159 317.241,137.600 317.859,137.600 318.034 C 137.600 318.518,140.918 323.615,141.109 323.424 C 141.202 323.332,140.749 322.479,140.104 321.528 C 139.459 320.578,138.406 318.855,137.765 317.700 C 137.124 316.546,136.384 315.601,136.119 315.600 C 135.855 315.600,136.080 316.076,136.619 316.658 M131.200 318.000 C 130.650 318.430,130.071 318.786,129.913 318.791 C 129.614 318.800,124.816 321.835,124.425 322.263 C 123.972 322.758,132.159 317.947,132.767 317.361 C 133.323 316.824,132.027 317.353,131.200 318.000 M179.000 319.100 C 178.870 319.925,178.682 321.005,178.582 321.500 C 177.986 324.444,177.983 324.560,178.529 323.121 C 179.119 321.568,179.768 317.600,179.432 317.600 C 179.324 317.600,179.130 318.275,179.000 319.100 M255.108 319.702 C 253.628 320.608,252.477 321.411,252.551 321.485 C 252.662 321.595,257.810 318.642,258.367 318.148 C 259.096 317.501,257.316 318.350,255.108 319.702 M274.470 320.378 C 274.981 321.026,275.549 321.566,275.730 321.578 C 275.912 321.590,275.642 321.070,275.130 320.422 C 274.619 319.774,274.051 319.234,273.870 319.222 C 273.688 319.210,273.958 319.730,274.470 320.378 M250.700 322.229 C 250.095 322.557,249.600 322.910,249.600 323.013 C 249.600 323.399,250.232 323.157,251.200 322.400 C 252.389 321.470,252.211 321.409,250.700 322.229 M277.194 323.394 C 277.937 324.161,278.621 324.712,278.713 324.620 C 278.909 324.424,276.499 322.000,276.108 322.000 C 275.962 322.000,276.451 322.627,277.194 323.394 M243.900 326.229 C 242.405 327.040,242.496 327.378,244.000 326.600 C 244.660 326.259,245.200 325.894,245.200 325.790 C 245.200 325.532,245.157 325.547,243.900 326.229 M367.608 329.500 C 366.830 332.742,366.746 333.512,367.335 332.000 C 367.947 330.431,368.536 327.600,368.251 327.600 C 368.148 327.600,367.859 328.455,367.608 329.500 M114.000 328.400 C 114.000 328.620,113.823 328.800,113.606 328.800 C 113.025 328.800,109.127 331.260,109.352 331.485 C 109.457 331.591,110.354 331.120,111.344 330.439 C 112.334 329.757,113.315 329.200,113.523 329.200 C 113.732 329.200,114.126 328.930,114.400 328.600 C 114.744 328.185,114.759 328.000,114.449 328.000 C 114.202 328.000,114.000 328.180,114.000 328.400 M174.200 329.914 C 173.180 331.087,172.962 331.484,173.600 331.010 C 174.775 330.137,176.609 327.983,176.130 328.038 C 175.949 328.058,175.080 328.903,174.200 329.914 M239.300 328.870 C 238.585 329.312,238.000 329.846,238.000 330.057 C 238.000 330.268,238.675 329.944,239.500 329.337 C 240.325 328.729,241.075 328.180,241.167 328.116 C 241.909 327.598,240.316 328.242,239.300 328.870 M216.288 328.933 C 215.842 330.066,215.915 330.645,216.438 330.122 C 216.678 329.882,216.808 329.351,216.726 328.942 C 216.582 328.226,216.566 328.226,216.288 328.933 M284.600 329.310 C 285.994 330.344,288.487 331.647,288.687 331.446 C 288.793 331.341,287.917 330.748,286.740 330.129 C 284.117 328.751,283.556 328.536,284.600 329.310 M324.580 329.173 C 324.371 329.379,323.131 330.189,321.824 330.973 C 320.516 331.758,319.601 332.400,319.788 332.400 C 320.218 332.400,323.485 330.516,324.754 329.536 C 325.279 329.131,325.540 328.800,325.334 328.800 C 325.128 328.800,324.789 328.968,324.580 329.173 M146.900 330.303 C 147.505 330.678,148.000 331.124,148.000 331.293 C 148.000 331.462,148.225 331.594,148.500 331.586 C 148.775 331.578,148.460 331.129,147.800 330.588 C 147.140 330.047,146.420 329.608,146.200 329.613 C 145.980 329.617,146.295 329.928,146.900 330.303 M238.000 330.919 C 238.000 331.294,240.035 334.937,240.503 335.400 C 240.726 335.620,240.326 334.720,239.616 333.400 C 238.279 330.918,238.000 330.489,238.000 330.919 M150.000 332.367 C 150.963 333.152,151.600 333.408,151.600 333.010 C 151.600 332.906,151.015 332.535,150.300 332.186 L 149.000 331.552 150.000 332.367 M171.065 332.247 C 170.440 332.586,170.003 332.937,170.094 333.027 C 170.332 333.265,172.393 332.256,172.397 331.900 C 172.401 331.519,172.415 331.516,171.065 332.247 M106.600 332.886 C 105.008 333.806,104.178 335.200,105.224 335.200 C 105.457 335.200,105.545 335.034,105.420 334.832 C 105.295 334.630,105.779 334.002,106.496 333.436 C 107.879 332.347,107.921 332.123,106.600 332.886 M155.400 334.400 C 156.511 334.878,157.295 334.878,157.000 334.400 C 156.864 334.180,156.268 334.013,155.676 334.028 C 154.715 334.053,154.686 334.093,155.400 334.400 M164.000 334.400 C 163.213 334.909,164.616 334.909,165.800 334.400 C 166.533 334.085,166.516 334.054,165.600 334.034 C 165.050 334.022,164.330 334.187,164.000 334.400 M297.800 334.400 C 298.911 334.878,299.695 334.878,299.400 334.400 C 299.264 334.180,298.668 334.013,298.076 334.028 C 297.115 334.053,297.086 334.093,297.800 334.400 M311.800 334.400 C 311.505 334.878,312.289 334.878,313.400 334.400 C 314.114 334.093,314.085 334.053,313.124 334.028 C 312.532 334.013,311.936 334.180,311.800 334.400 M107.369 339.200 C 107.496 339.530,107.711 340.115,107.846 340.500 C 107.982 340.885,108.259 341.200,108.461 341.200 C 108.824 341.200,108.475 340.406,107.583 339.200 C 107.188 338.667,107.165 338.667,107.369 339.200 M243.693 340.400 C 243.968 340.840,244.331 341.200,244.500 341.200 C 244.669 341.200,244.582 340.840,244.307 340.400 C 244.032 339.960,243.669 339.600,243.500 339.600 C 243.331 339.600,243.418 339.960,243.693 340.400 M109.240 342.475 C 109.498 342.956,109.867 343.541,110.060 343.775 C 110.254 344.009,111.080 345.100,111.897 346.200 C 113.725 348.663,114.922 350.052,117.035 352.165 C 119.148 354.278,120.537 355.475,123.000 357.303 C 124.100 358.120,125.214 358.968,125.476 359.187 C 125.738 359.407,126.593 359.950,127.376 360.393 C 128.159 360.837,129.451 361.569,130.247 362.020 C 131.043 362.470,131.780 362.753,131.886 362.648 C 131.991 362.542,131.295 362.057,130.339 361.571 C 123.443 358.060,115.829 351.240,110.833 344.100 C 109.062 341.568,108.386 340.878,109.240 342.475 M361.393 344.322 C 360.742 345.355,359.258 347.325,358.095 348.700 C 355.912 351.279,355.584 352.208,357.670 349.900 C 359.112 348.304,362.923 342.790,362.722 342.589 C 362.642 342.509,362.044 343.289,361.393 344.322 M246.430 343.882 C 248.264 345.928,248.400 346.056,248.388 345.729 C 248.373 345.309,246.101 342.800,245.736 342.800 C 245.584 342.800,245.897 343.287,246.430 343.882 M208.885 347.347 C 207.537 349.421,207.217 350.093,208.003 349.200 C 209.173 347.871,211.332 344.383,211.106 344.186 C 211.048 344.135,210.048 345.558,208.885 347.347 M248.800 346.310 C 248.800 346.731,251.937 349.805,252.132 349.574 C 252.213 349.478,251.497 348.631,250.540 347.691 C 249.583 346.751,248.800 346.129,248.800 346.310 M253.852 351.371 C 254.699 352.124,255.456 352.677,255.534 352.599 C 255.729 352.404,253.084 350.026,252.656 350.012 C 252.467 350.005,253.005 350.617,253.852 351.371 M203.188 354.236 C 201.765 355.685,199.551 357.591,198.269 358.471 C 196.987 359.352,196.030 360.164,196.143 360.276 C 196.255 360.389,196.584 360.276,196.874 360.026 C 197.163 359.776,197.957 359.173,198.637 358.686 C 200.724 357.192,206.512 351.600,205.972 351.600 C 205.865 351.600,204.612 352.786,203.188 354.236 M353.045 353.815 C 351.749 355.017,350.849 356.000,351.045 356.000 C 351.241 356.000,352.456 355.010,353.746 353.800 C 355.036 352.590,355.936 351.607,355.746 351.615 C 355.556 351.623,354.340 352.613,353.045 353.815 M257.205 353.880 C 257.208 354.056,257.838 354.607,258.605 355.104 C 260.403 356.268,260.400 356.000,258.600 354.627 C 257.830 354.040,257.202 353.703,257.205 353.880 M261.787 357.179 C 262.055 357.613,265.670 359.664,265.850 359.484 C 265.920 359.413,264.985 358.786,263.772 358.089 C 262.559 357.392,261.666 356.983,261.787 357.179 M347.407 358.222 C 346.311 358.980,345.559 359.600,345.735 359.600 C 346.118 359.600,349.600 357.240,349.600 356.981 C 349.600 356.711,349.559 356.734,347.407 358.222 M266.400 359.909 C 266.400 360.266,268.774 361.360,269.018 361.115 C 269.113 361.021,268.562 360.644,267.795 360.278 C 267.028 359.912,266.400 359.746,266.400 359.909 M343.800 360.437 C 343.140 360.895,342.870 361.164,343.200 361.035 C 343.530 360.906,344.115 360.689,344.500 360.554 C 344.885 360.418,345.200 360.148,345.200 359.953 C 345.200 359.476,345.172 359.486,343.800 360.437 M194.200 361.200 C 193.540 361.637,193.180 361.992,193.400 361.988 C 193.801 361.982,195.976 360.423,195.600 360.412 C 195.490 360.408,194.860 360.763,194.200 361.200 M328.000 366.400 C 327.467 366.745,327.467 366.788,328.000 366.788 C 328.330 366.788,328.870 366.613,329.200 366.400 C 329.733 366.055,329.733 366.012,329.200 366.012 C 328.870 366.012,328.330 366.187,328.000 366.400 M145.200 367.376 C 152.521 369.679,170.451 369.670,178.600 367.361 C 179.700 367.050,179.970 366.907,179.200 367.045 C 178.430 367.183,176.900 367.457,175.800 367.654 C 168.484 368.964,154.732 368.953,147.800 367.631 C 143.697 366.848,143.441 366.823,145.200 367.376 M287.201 367.339 C 289.116 367.900,293.898 368.565,293.555 368.222 C 293.368 368.034,290.177 367.457,286.800 367.000 C 285.627 366.842,285.692 366.897,287.201 367.339 M324.000 367.234 C 323.230 367.417,321.790 367.736,320.800 367.943 C 319.127 368.292,319.169 368.303,321.399 368.093 C 323.996 367.848,328.086 366.861,326.400 366.886 C 325.850 366.894,324.770 367.051,324.000 367.234 M300.217 368.991 C 305.630 369.453,307.603 369.454,312.817 368.997 L 319.000 368.455 313.200 368.708 C 306.206 369.013,306.772 369.014,299.600 368.699 L 293.800 368.444 300.217 368.991 " stroke="none" fill="#c9b714" fill-rule="evenodd"></path></g></svg>