<svg id="svg" version="1.1" xmlns="http://www.w3.org/2000/svg" xmlns:xlink="http://www.w3.org/1999/xlink" width="400" height="400" viewBox="0, 0, 400,400"><g id="svgg"><path id="path0" d="M101.444 91.943 C 101.550 92.471,106.641 129.136,106.641 129.371 C 106.641 129.437,127.437 129.514,152.854 129.541 L 199.067 129.590 153.866 148.990 C 129.005 159.660,108.555 168.458,108.420 168.541 C 108.217 168.667,112.818 202.477,113.386 205.029 L 113.484 205.469 180.570 205.469 C 217.467 205.469,247.655 205.535,247.653 205.615 C 247.640 206.289,242.806 256.673,242.749 256.727 C 242.709 256.767,232.477 258.791,220.012 261.226 L 197.348 265.653 176.778 260.377 C 165.464 257.475,156.186 255.074,156.158 255.041 C 156.131 255.008,155.433 248.696,154.609 241.016 C 153.784 233.335,153.062 226.809,153.004 226.514 L 152.899 225.977 134.067 225.977 L 115.234 225.977 115.231 226.514 C 115.226 227.331,120.162 286.414,120.243 286.508 C 120.282 286.553,138.552 291.672,160.843 297.883 L 201.372 309.176 240.188 296.843 C 261.537 290.060,279.043 284.477,279.091 284.437 C 279.169 284.371,289.039 167.315,289.056 166.260 L 289.063 165.821 248.118 165.772 L 207.173 165.723 251.828 147.188 L 296.484 128.653 296.484 110.030 L 296.484 91.406 198.910 91.406 L 101.336 91.406 101.444 91.943 " stroke="none" fill="#fbfbfb" fill-rule="evenodd"></path><path id="path1" d="M201.172 72.852 L 201.172 91.406 248.926 91.406 L 296.680 91.406 296.680 110.037 L 296.680 128.669 294.385 129.630 C 293.123 130.159,273.039 138.496,249.756 148.157 L 207.421 165.723 248.342 165.772 L 289.262 165.821 289.161 166.553 C 289.105 166.956,286.856 193.651,284.164 225.877 C 281.472 258.102,279.251 284.486,279.229 284.508 C 279.120 284.617,201.678 309.180,201.444 309.180 C 201.213 309.180,201.172 311.942,201.172 327.246 C 201.172 337.183,201.214 345.313,201.265 345.313 C 201.540 345.313,305.196 315.183,305.300 315.073 C 305.459 314.905,328.029 54.917,327.896 54.784 C 327.793 54.681,241.154 54.307,215.771 54.301 L 201.172 54.297 201.172 72.852 M106.672 129.589 C 106.801 129.717,198.470 129.720,198.599 129.591 C 198.653 129.537,177.970 129.492,152.637 129.492 C 127.303 129.492,106.619 129.536,106.672 129.589 M201.172 235.128 L 201.172 264.788 202.100 264.609 C 214.176 262.279,242.600 256.683,242.656 256.624 C 242.699 256.579,243.822 245.051,245.151 231.006 L 247.569 205.469 224.371 205.469 L 201.172 205.469 201.172 235.128 " stroke="none" fill="#048ccc" fill-rule="evenodd"></path><path id="path2" d="M45.898 24.296 C 45.898 25.468,71.716 339.369,71.820 339.467 C 72.015 339.649,200.591 375.778,201.091 375.791 C 202.214 375.819,326.773 339.539,326.853 339.160 C 327.015 338.400,354.106 24.940,354.019 24.852 C 353.818 24.651,45.898 24.096,45.898 24.296 M279.084 54.495 C 305.876 54.599,327.842 54.730,327.896 54.784 C 328.029 54.917,305.459 314.905,305.300 315.073 C 305.196 315.183,201.540 345.313,201.265 345.313 C 201.214 345.313,201.172 337.183,201.172 327.246 C 201.172 317.310,201.119 309.180,201.054 309.180 C 200.874 309.180,120.225 286.697,120.156 286.627 C 120.103 286.574,115.046 226.658,115.041 226.025 C 115.039 225.832,118.977 225.781,134.082 225.781 C 152.088 225.781,153.125 225.800,153.125 226.123 C 153.126 226.692,156.216 254.915,156.284 254.972 C 156.464 255.122,197.054 265.430,197.466 265.430 C 197.732 265.430,198.674 265.286,199.561 265.110 L 201.172 264.790 201.172 235.130 L 201.172 205.469 157.227 205.469 C 122.204 205.469,113.280 205.419,113.276 205.225 C 113.272 205.090,112.094 196.807,110.658 186.816 C 109.221 176.826,108.103 168.597,108.173 168.529 C 108.243 168.462,128.552 159.717,153.304 149.096 L 198.307 129.785 152.477 129.736 L 106.648 129.687 106.547 129.248 C 106.401 128.608,101.367 92.181,101.367 91.761 C 101.367 91.419,103.198 91.406,151.270 91.406 L 201.172 91.406 201.172 72.852 L 201.172 54.297 215.771 54.301 C 223.801 54.303,252.292 54.390,279.084 54.495 " stroke="none" fill="#0474bc" fill-rule="evenodd"></path><path id="path3" d="M115.066 226.317 C 115.088 226.778,115.104 226.792,115.177 226.416 L 115.262 225.977 134.081 225.977 C 148.963 225.977,152.918 226.028,152.983 226.221 C 153.030 226.361,153.056 226.340,153.043 226.172 C 153.025 225.914,150.748 225.873,134.031 225.829 L 115.039 225.779 115.066 226.317 " stroke="none" fill="#71bedf" fill-rule="evenodd"></path><path id="path4" d="M296.578 110.059 C 296.578 120.371,296.602 124.561,296.631 119.370 C 296.660 114.179,296.660 105.741,296.631 100.620 C 296.602 95.499,296.578 99.746,296.578 110.059 " stroke="none" fill="#0da8d9" fill-rule="evenodd"></path></g></svg>