<svg id="svg" version="1.1" xmlns="http://www.w3.org/2000/svg" xmlns:xlink="http://www.w3.org/1999/xlink" width="400" height="388.1773399014778" viewBox="0, 0, 400,388.1773399014778"><g id="svgg"><path id="path0" d="M87.379 107.827 C 84.904 108.646,82.846 110.296,77.051 116.107 C 69.961 123.218,69.694 123.549,70.243 124.558 C 70.448 124.935,74.082 128.650,78.318 132.816 L 86.019 140.388 89.515 140.413 C 97.025 140.465,101.413 145.155,101.389 153.105 L 101.379 156.114 109.072 163.849 L 116.766 171.584 120.227 171.520 C 133.287 171.282,137.601 188.500,125.845 193.940 C 117.459 197.820,108.477 191.148,109.305 181.654 L 109.571 178.604 104.591 173.539 C 98.546 167.391,96.008 165.196,95.514 165.690 C 95.047 166.157,94.948 171.205,95.057 188.981 L 95.146 203.398 97.645 205.922 C 103.926 212.265,102.175 221.805,94.069 225.408 C 82.315 230.632,72.185 214.065,82.017 205.696 C 82.937 204.914,83.995 204.011,84.369 203.690 C 85.000 203.149,85.049 201.692,85.049 183.498 L 85.049 163.889 82.412 161.247 C 78.690 157.517,78.254 156.481,78.246 151.345 L 78.240 147.156 70.491 139.403 C 66.229 135.139,62.462 131.650,62.120 131.650 C 61.373 131.650,16.568 176.406,15.657 178.063 C 14.744 179.723,14.763 184.609,15.690 186.408 C 16.333 187.657,25.484 197.114,35.905 207.298 C 38.245 209.585,41.767 213.117,43.731 215.146 C 45.695 217.175,52.746 224.252,59.401 230.874 C 66.055 237.495,73.194 244.651,75.265 246.776 C 85.479 257.260,87.444 258.334,92.882 256.408 C 95.036 255.645,160.568 190.614,162.576 187.247 C 163.910 185.009,164.178 182.059,163.289 179.373 C 162.172 176.000,95.279 109.249,92.005 108.241 C 89.851 107.578,88.498 107.457,87.379 107.827 " stroke="none" fill="#f20c0d" fill-rule="evenodd"></path><path id="path1" d="M291.041 107.938 C 289.826 108.228,288.534 108.829,286.350 110.120 C 281.137 113.201,281.124 125.291,286.328 129.671 C 291.642 134.142,302.784 132.731,305.679 127.219 C 307.192 124.338,307.312 123.802,307.310 119.907 C 307.306 110.759,300.420 105.693,291.041 107.938 M335.825 121.434 C 335.318 121.566,335.142 122.021,335.132 123.232 C 335.047 133.680,327.689 143.001,318.532 144.260 L 316.505 144.539 316.505 150.522 L 316.505 156.505 320.953 156.505 C 323.501 156.505,325.823 156.697,326.389 156.956 L 327.379 157.406 327.379 179.338 C 327.379 193.489,327.524 201.836,327.789 202.868 C 329.788 210.646,332.206 214.117,337.282 216.495 C 341.920 218.669,351.185 219.239,358.641 217.810 C 360.990 217.360,363.482 216.906,364.178 216.802 C 364.875 216.698,365.540 216.458,365.658 216.268 C 365.775 216.078,366.140 215.922,366.469 215.922 C 366.798 215.922,367.618 215.679,368.291 215.381 C 368.964 215.083,370.344 214.515,371.358 214.119 C 373.412 213.315,373.558 212.888,372.659 210.304 C 372.359 209.443,371.617 207.124,371.009 205.152 C 369.793 201.210,369.911 201.292,366.718 202.179 C 357.435 204.760,351.564 203.510,349.197 198.447 C 348.397 196.736,347.971 158.714,348.736 157.285 C 349.153 156.505,349.446 156.479,357.594 156.505 C 362.228 156.520,366.850 156.526,367.864 156.519 L 369.709 156.505 369.709 149.929 C 369.709 144.003,369.642 143.333,369.029 143.151 C 368.655 143.039,364.000 142.955,358.684 142.963 C 351.035 142.975,348.950 142.870,348.690 142.460 C 348.509 142.175,348.359 137.354,348.355 131.748 L 348.350 121.553 342.944 121.553 C 339.972 121.553,337.307 121.487,337.022 121.405 C 336.738 121.324,336.199 121.337,335.825 121.434 M222.136 144.931 C 206.409 146.594,196.961 155.847,196.239 170.291 C 196.066 173.755,196.244 175.665,197.109 179.612 C 197.973 183.550,201.288 188.350,205.162 191.268 C 208.438 193.736,208.617 193.181,202.594 199.252 C 195.619 206.283,194.300 209.296,195.966 214.391 C 196.594 216.309,199.077 219.194,200.485 219.642 C 201.521 219.971,201.316 220.613,199.565 222.524 C 191.667 231.148,191.764 241.119,199.799 246.568 C 201.087 247.441,202.266 248.155,202.419 248.155 C 202.572 248.155,203.619 248.577,204.747 249.091 C 205.874 249.606,207.233 250.120,207.767 250.233 C 208.301 250.347,209.437 250.616,210.291 250.832 C 214.839 251.980,217.769 252.205,228.350 252.219 C 236.182 252.229,240.099 252.082,241.748 251.716 C 253.231 249.170,256.769 247.558,261.914 242.524 C 266.507 238.030,268.163 233.848,268.138 226.796 C 268.102 216.785,263.991 211.376,254.563 208.933 C 250.273 207.822,240.609 206.677,231.456 206.197 C 213.152 205.237,214.119 205.630,217.525 200.525 C 220.043 196.752,219.837 196.877,222.473 197.508 C 225.727 198.286,236.643 198.232,239.936 197.421 C 243.501 196.544,249.542 194.261,250.111 193.575 C 250.369 193.264,250.817 193.010,251.106 193.010 C 251.395 193.010,252.949 191.717,254.560 190.138 C 262.095 182.748,263.506 171.540,258.129 161.790 C 256.210 158.310,255.634 158.621,265.437 157.834 C 269.729 157.489,269.366 158.019,269.327 152.148 C 269.308 149.311,269.157 146.772,268.992 146.505 C 268.761 146.131,265.494 146.019,254.799 146.019 C 247.158 146.019,240.776 145.888,240.616 145.728 C 239.698 144.806,228.065 144.304,222.136 144.931 M278.738 144.883 C 278.316 145.130,278.057 145.753,278.056 146.524 C 278.055 147.208,277.896 148.379,277.703 149.126 C 277.511 149.874,277.240 151.583,277.102 152.925 L 276.852 155.364 279.020 156.323 C 280.212 156.850,281.367 157.282,281.586 157.282 C 282.336 157.282,285.309 158.796,285.859 159.458 C 286.318 160.011,286.408 163.829,286.408 182.812 L 286.408 205.506 285.556 206.195 C 285.063 206.594,283.673 206.998,282.255 207.153 C 280.908 207.300,279.150 207.593,278.350 207.803 L 276.893 208.185 276.893 213.417 L 276.893 218.648 296.796 218.547 L 316.699 218.447 316.807 213.366 L 316.915 208.285 315.448 207.864 C 314.641 207.632,312.849 207.319,311.466 207.168 C 310.083 207.017,308.555 206.634,308.070 206.316 L 307.189 205.739 307.090 175.200 L 306.990 144.660 293.204 144.572 C 284.317 144.515,279.176 144.626,278.738 144.883 M236.742 159.479 C 239.710 160.896,242.718 164.713,242.718 167.063 C 242.718 167.507,242.921 168.547,243.169 169.373 C 244.461 173.686,239.656 182.524,236.019 182.524 C 235.711 182.524,234.916 182.795,234.253 183.126 C 232.497 184.002,226.085 183.906,223.387 182.963 C 211.333 178.754,213.826 159.714,226.602 158.408 C 230.543 158.005,234.536 158.427,236.742 159.479 M222.524 224.442 C 246.240 225.839,247.379 226.150,247.379 231.227 C 247.379 237.190,240.677 239.908,226.990 239.497 C 216.441 239.180,212.086 237.795,210.622 234.292 C 209.662 231.993,210.312 228.085,211.950 226.314 C 214.206 223.873,214.554 223.635,215.524 223.860 C 216.064 223.985,219.214 224.246,222.524 224.442 " stroke="none" fill="#1c130e" fill-rule="evenodd"></path><path id="path2" d="M0.000 194.175 L 0.000 388.350 200.000 388.350 L 400.000 388.350 400.000 194.175 L 400.000 0.000 200.000 0.000 L 0.000 0.000 0.000 194.175 M94.128 107.841 C 95.781 108.693,162.330 175.286,163.717 177.476 C 164.692 179.016,164.825 179.595,164.839 182.356 C 164.863 187.181,164.687 187.418,150.977 201.053 C 144.364 207.629,138.283 213.709,137.463 214.563 C 136.355 215.718,118.170 233.851,114.820 237.142 C 114.572 237.385,111.806 240.181,108.673 243.355 C 99.703 252.443,95.605 256.386,94.575 256.920 C 91.702 258.410,87.165 258.411,84.350 256.921 C 82.236 255.802,15.809 188.918,14.623 186.714 C 13.283 184.225,13.312 180.655,14.695 177.799 C 15.467 176.205,59.710 131.416,61.505 130.412 C 62.504 129.852,62.374 129.743,71.073 138.396 L 79.215 146.495 79.145 150.464 C 79.051 155.769,80.994 159.807,84.298 161.176 C 86.130 161.935,86.209 162.881,86.211 183.983 L 86.214 203.500 85.146 204.370 C 80.479 208.172,79.036 210.593,79.075 214.557 C 79.141 221.340,85.371 226.337,91.930 224.869 C 101.046 222.829,103.333 211.981,95.956 205.776 L 94.398 204.466 94.312 184.448 C 94.264 173.438,94.355 164.220,94.514 163.963 C 95.182 162.882,96.473 163.870,103.301 170.682 L 110.485 177.851 110.497 182.226 C 110.524 192.608,120.683 197.764,128.081 191.152 C 135.762 184.286,130.653 172.662,119.941 172.632 L 116.177 172.621 108.186 164.466 L 100.196 156.311 100.195 152.517 C 100.193 145.436,95.766 141.154,88.664 141.366 C 87.210 141.410,85.836 141.426,85.612 141.402 C 84.438 141.278,68.932 124.999,68.932 123.891 C 68.932 122.656,80.975 109.998,83.928 108.130 C 86.203 106.690,91.597 106.537,94.128 107.841 M301.759 107.967 C 310.914 112.638,310.690 129.107,301.430 132.064 C 300.644 132.315,299.834 132.675,299.631 132.862 C 299.117 133.338,290.976 133.296,290.680 132.816 C 290.548 132.602,290.100 132.427,289.684 132.427 C 281.520 132.427,278.546 115.582,285.621 109.411 C 288.598 106.815,297.873 105.985,301.759 107.967 M349.036 131.049 C 349.113 138.828,349.262 141.594,349.618 141.820 C 349.882 141.987,354.497 142.127,359.875 142.130 C 371.943 142.137,370.792 141.330,370.793 149.793 C 370.795 158.574,372.080 157.670,359.598 157.670 L 349.126 157.670 349.140 175.825 C 349.157 197.923,349.447 199.754,353.192 201.440 C 355.066 202.283,362.638 202.353,365.437 201.553 C 368.573 200.657,370.070 200.469,370.433 200.927 C 371.458 202.220,374.535 212.851,374.092 213.571 C 373.522 214.499,366.273 217.192,360.583 218.589 C 353.526 220.322,339.756 219.631,337.301 217.420 C 337.098 217.237,336.705 217.087,336.428 217.087 C 335.663 217.087,332.295 214.551,331.232 213.174 C 326.909 207.573,326.648 205.626,326.622 178.779 C 326.604 160.330,326.537 158.116,325.988 157.906 C 325.650 157.776,323.326 157.670,320.823 157.670 C 314.999 157.670,315.340 158.109,315.340 150.611 C 315.340 143.481,315.197 143.733,319.714 142.912 C 321.158 142.649,322.435 142.280,322.552 142.091 C 322.669 141.902,323.007 141.748,323.304 141.748 C 324.189 141.748,327.229 139.514,328.813 137.699 C 331.608 134.499,332.982 130.822,334.189 123.308 C 334.682 120.240,334.355 120.358,342.057 120.477 L 348.932 120.583 349.036 131.049 M237.864 144.265 C 239.983 144.714,243.758 144.842,254.971 144.848 C 265.636 144.853,269.480 144.975,269.825 145.320 C 270.147 145.642,270.291 147.627,270.291 151.738 L 270.291 157.689 269.223 158.121 C 268.636 158.359,266.025 158.665,263.421 158.801 C 257.615 159.104,257.775 158.932,259.687 162.820 C 260.552 164.580,261.490 166.718,261.771 167.573 C 262.417 169.539,262.441 178.491,261.802 179.130 C 261.558 179.374,261.359 179.925,261.359 180.356 C 261.359 183.800,255.475 191.969,251.578 193.935 C 250.871 194.292,250.029 194.730,249.709 194.907 C 243.157 198.534,234.264 199.778,223.384 198.590 C 220.201 198.242,220.159 198.249,219.526 199.216 C 219.174 199.754,218.657 200.425,218.375 200.707 C 218.094 200.990,217.864 201.470,217.864 201.775 C 217.864 202.080,217.710 202.330,217.521 202.330 C 216.977 202.330,216.724 203.853,217.218 204.158 C 217.463 204.310,221.247 204.666,225.628 204.951 C 248.886 206.460,250.461 206.654,257.046 208.823 C 266.887 212.065,271.282 221.606,268.458 233.592 C 266.483 241.972,254.279 251.650,245.687 251.650 C 244.994 251.650,244.261 251.805,244.058 251.994 C 242.381 253.556,223.462 253.953,215.340 252.597 C 213.417 252.276,210.971 251.868,209.903 251.690 C 208.835 251.512,207.350 251.151,206.602 250.888 C 205.355 250.448,204.789 250.212,201.936 248.940 C 197.786 247.091,193.786 242.715,193.786 240.026 C 193.786 239.610,193.612 239.161,193.398 239.029 C 192.871 238.703,192.904 232.044,193.442 230.319 C 194.340 227.434,196.509 224.114,199.508 221.033 C 199.927 220.602,199.829 220.368,198.940 219.680 C 195.361 216.910,194.766 215.684,194.761 211.072 C 194.756 206.164,195.655 204.609,202.189 198.225 C 207.133 193.395,206.991 193.623,205.534 192.856 C 202.058 191.026,197.873 185.226,196.396 180.194 C 191.882 164.809,199.870 149.297,214.228 145.568 C 221.678 143.633,232.152 143.055,237.864 144.265 M307.841 144.175 C 308.014 144.442,308.243 158.359,308.350 175.103 L 308.544 205.545 310.485 206.056 C 311.553 206.338,313.159 206.575,314.052 206.585 C 314.946 206.594,316.126 206.772,316.674 206.981 L 317.670 207.359 317.670 213.153 C 317.670 218.077,317.578 218.981,317.056 219.182 C 315.795 219.666,276.688 219.445,276.194 218.951 C 275.877 218.634,275.728 216.782,275.728 213.148 C 275.728 207.025,275.948 206.602,279.138 206.602 C 281.436 206.602,284.363 205.855,284.951 205.119 C 285.327 204.649,285.437 199.529,285.437 182.510 C 285.437 156.978,286.072 159.955,280.175 157.847 C 276.295 156.461,275.574 155.975,275.937 154.990 C 276.047 154.691,276.315 152.681,276.533 150.524 C 276.751 148.367,277.103 145.947,277.314 145.146 L 277.700 143.689 292.613 143.689 C 304.118 143.689,307.599 143.800,307.841 144.175 M225.049 159.543 C 223.981 159.892,223.049 160.312,222.977 160.477 C 222.906 160.642,222.601 160.777,222.298 160.777 C 218.565 160.777,215.324 171.791,217.591 176.773 C 221.589 185.559,237.832 184.720,241.581 175.534 C 242.933 172.223,241.932 165.567,239.678 162.870 C 236.869 159.510,229.962 157.939,225.049 159.543 M214.455 225.099 C 211.501 226.383,210.261 232.840,212.509 235.233 C 217.038 240.054,239.951 239.889,244.886 235.000 C 248.356 231.561,246.750 227.551,241.682 227.004 C 240.437 226.869,238.685 226.593,237.789 226.389 C 236.894 226.186,234.709 226.018,232.935 226.016 C 231.160 226.015,228.268 225.848,226.508 225.645 C 222.239 225.155,215.075 224.830,214.455 225.099 " stroke="none" fill="#fbfbfb" fill-rule="evenodd"></path><path id="path3" d="M86.646 107.060 C 83.718 107.465,68.932 121.514,68.932 123.891 C 68.932 124.999,84.438 141.278,85.612 141.402 C 85.836 141.426,87.210 141.410,88.664 141.366 C 95.766 141.154,100.193 145.436,100.195 152.517 L 100.196 156.311 108.186 164.466 L 116.177 172.621 119.941 172.632 C 130.653 172.662,135.762 184.286,128.081 191.152 C 120.683 197.764,110.524 192.608,110.497 182.226 L 110.485 177.851 103.301 170.682 C 96.473 163.870,95.182 162.882,94.514 163.963 C 94.355 164.220,94.264 173.438,94.312 184.448 L 94.398 204.466 95.956 205.776 C 103.333 211.981,101.046 222.829,91.930 224.869 C 85.371 226.337,79.141 221.340,79.075 214.557 C 79.036 210.593,80.479 208.172,85.146 204.370 L 86.214 203.500 86.211 183.983 C 86.209 162.881,86.130 161.935,84.298 161.176 C 80.994 159.807,79.051 155.769,79.145 150.464 L 79.215 146.495 71.073 138.396 C 62.374 129.743,62.504 129.852,61.505 130.412 C 59.710 131.416,15.467 176.205,14.695 177.799 C 13.312 180.655,13.283 184.225,14.623 186.714 C 15.809 188.918,82.236 255.802,84.350 256.921 C 87.165 258.411,91.702 258.410,94.575 256.920 C 95.605 256.386,99.703 252.443,108.673 243.355 C 111.806 240.181,114.572 237.385,114.820 237.142 C 118.170 233.851,136.355 215.718,137.463 214.563 C 138.283 213.709,144.364 207.629,150.977 201.053 C 164.687 187.418,164.863 187.181,164.839 182.356 C 164.825 179.595,164.692 179.016,163.717 177.476 C 162.330 175.286,95.781 108.693,94.128 107.841 C 92.838 107.176,88.828 106.758,86.646 107.060 M293.486 107.076 C 294.176 107.162,295.399 107.164,296.205 107.080 C 297.011 106.995,296.447 106.925,294.951 106.924 C 293.456 106.922,292.797 106.991,293.486 107.076 M92.340 107.964 C 95.047 108.914,161.966 175.286,163.497 178.539 C 164.575 180.830,164.537 184.299,163.407 186.703 C 161.804 190.114,95.544 255.979,92.868 256.820 C 90.266 257.639,88.415 257.649,86.095 256.859 C 84.004 256.146,16.928 189.457,15.381 186.552 C 14.312 184.544,14.295 180.273,15.347 178.058 C 16.129 176.412,60.535 131.627,61.871 131.137 C 62.424 130.934,64.353 132.654,70.739 139.042 L 78.899 147.207 78.623 148.844 C 77.677 154.445,79.055 158.010,83.592 161.700 L 85.437 163.200 85.437 183.516 C 85.437 202.903,85.404 203.842,84.722 204.058 C 84.329 204.183,83.037 205.232,81.851 206.390 C 74.473 213.593,79.425 225.785,89.709 225.738 C 100.876 225.688,105.218 212.103,96.319 205.055 L 94.757 203.818 94.757 184.045 C 94.757 169.030,94.868 164.272,95.219 164.272 C 95.473 164.272,98.886 167.461,102.804 171.358 L 109.928 178.444 109.672 181.592 C 108.748 192.989,121.648 199.152,129.225 190.933 C 136.155 183.414,129.909 170.400,120.051 171.819 C 119.062 171.961,117.912 172.077,117.496 172.077 C 116.782 172.076,101.827 157.578,100.951 156.038 C 100.703 155.601,100.731 154.797,101.034 153.665 C 102.726 147.336,96.914 140.878,89.385 140.722 C 87.391 140.681,85.692 140.589,85.608 140.518 C 83.882 139.056,69.126 124.058,69.126 123.765 C 69.126 123.104,83.250 109.274,84.702 108.513 C 85.950 107.859,87.905 107.328,89.427 107.229 C 89.806 107.205,91.117 107.535,92.340 107.964 M288.141 107.896 C 279.468 111.989,279.066 127.141,287.510 131.667 C 288.291 132.085,289.236 132.425,289.610 132.423 C 289.985 132.421,289.416 132.012,288.347 131.514 C 278.430 126.896,280.243 109.693,290.874 107.548 L 292.233 107.274 290.874 107.261 C 290.126 107.253,288.897 107.539,288.141 107.896 M299.223 107.549 C 305.005 108.963,307.734 112.890,307.739 119.806 C 307.746 128.706,303.853 132.587,294.892 132.610 C 292.510 132.616,290.641 132.752,290.740 132.913 C 290.993 133.323,299.183 133.277,299.631 132.862 C 299.834 132.675,300.644 132.315,301.430 132.064 C 311.817 128.747,309.798 106.833,299.142 107.224 L 298.058 107.264 299.223 107.549 M334.813 121.061 C 334.481 121.681,333.403 126.869,332.974 129.903 C 332.826 130.957,332.864 130.929,333.375 129.610 C 333.686 128.808,334.153 126.711,334.413 124.950 C 335.070 120.486,334.590 120.741,342.094 120.865 L 348.544 120.971 348.738 131.522 C 348.845 137.325,349.047 142.187,349.187 142.327 C 349.327 142.466,353.870 142.633,359.284 142.697 C 364.697 142.761,369.345 142.835,369.612 142.863 C 370.029 142.906,370.407 156.634,370.000 156.974 C 369.947 157.019,365.184 157.150,359.417 157.266 L 348.932 157.476 348.932 176.699 C 348.932 197.065,348.970 197.547,350.795 200.146 C 352.643 202.779,357.311 203.578,363.495 202.319 C 370.710 200.851,370.211 200.807,370.842 202.978 C 371.142 204.010,371.881 206.340,372.485 208.155 C 374.311 213.646,374.024 214.072,366.995 216.326 C 366.036 216.633,365.520 216.936,365.847 216.999 C 366.715 217.166,373.653 214.281,374.091 213.571 C 374.535 212.851,371.460 202.222,370.433 200.927 C 370.070 200.469,368.573 200.657,365.437 201.553 C 362.638 202.353,355.066 202.283,353.192 201.440 C 349.447 199.754,349.157 197.923,349.140 175.825 L 349.126 157.670 359.598 157.670 C 372.080 157.670,370.795 158.574,370.793 149.793 C 370.792 141.330,371.943 142.137,359.875 142.130 C 354.497 142.127,349.882 141.987,349.618 141.820 C 349.262 141.594,349.113 138.828,349.036 131.049 L 348.932 120.583 342.057 120.477 C 335.801 120.380,335.149 120.433,334.813 121.061 M332.075 132.233 C 330.453 136.479,325.597 141.748,323.304 141.748 C 323.007 141.748,322.669 141.902,322.552 142.091 C 322.435 142.280,321.158 142.649,319.714 142.912 C 315.197 143.733,315.340 143.481,315.340 150.611 C 315.340 158.121,314.980 157.668,320.951 157.676 C 323.525 157.679,325.848 157.820,326.113 157.988 C 326.485 158.224,326.619 163.118,326.699 179.438 L 326.803 200.583 326.897 179.168 C 326.981 159.943,326.927 157.729,326.376 157.517 C 326.038 157.388,323.714 157.282,321.211 157.282 C 315.429 157.282,315.728 157.631,315.728 150.870 C 315.728 144.368,315.701 144.420,319.585 143.506 C 323.100 142.679,326.244 141.049,328.454 138.907 C 330.128 137.284,332.979 132.287,332.681 131.496 C 332.592 131.261,332.320 131.592,332.075 132.233 M219.029 144.477 C 213.680 145.613,212.902 145.870,209.180 147.737 C 200.374 152.151,195.916 159.454,195.073 170.844 C 194.473 178.956,199.592 189.727,205.534 192.856 C 206.991 193.623,207.133 193.395,202.189 198.225 C 196.140 204.136,194.911 206.118,194.744 210.238 L 194.615 213.398 194.913 210.680 C 195.384 206.371,196.413 204.714,202.239 198.880 C 205.095 196.022,207.288 193.566,207.113 193.423 C 206.939 193.280,205.823 192.433,204.634 191.541 C 191.687 181.824,193.008 158.210,206.990 149.443 C 214.361 144.822,226.299 142.940,236.893 144.728 C 239.584 145.182,244.525 145.415,255.146 145.588 L 269.709 145.825 269.816 151.557 C 269.943 158.338,270.322 157.869,264.272 158.422 L 260.388 158.777 264.272 158.671 C 266.408 158.613,268.636 158.368,269.223 158.127 L 270.291 157.689 270.291 151.738 C 270.291 147.627,270.147 145.642,269.825 145.320 C 269.480 144.975,265.636 144.853,254.971 144.848 C 243.758 144.842,239.983 144.714,237.864 144.265 C 233.950 143.436,223.375 143.555,219.029 144.477 M277.314 145.146 C 277.103 145.947,276.751 148.367,276.533 150.524 C 276.315 152.681,276.047 154.691,275.937 154.990 C 275.574 155.975,276.295 156.461,280.175 157.847 C 286.072 159.955,285.437 156.978,285.437 182.510 C 285.437 199.529,285.327 204.649,284.951 205.119 C 284.363 205.855,281.436 206.602,279.138 206.602 C 275.948 206.602,275.728 207.025,275.728 213.148 C 275.728 216.782,275.877 218.634,276.194 218.951 C 276.688 219.445,315.795 219.666,317.056 219.182 C 317.578 218.981,317.670 218.077,317.670 213.153 L 317.670 207.359 316.674 206.981 C 316.126 206.772,314.946 206.594,314.052 206.585 C 313.159 206.575,311.553 206.338,310.485 206.056 L 308.544 205.545 308.350 175.103 C 308.243 158.359,308.014 144.442,307.841 144.175 C 307.599 143.800,304.118 143.689,292.613 143.689 L 277.700 143.689 277.314 145.146 M307.573 174.822 C 307.680 191.625,307.854 205.451,307.961 205.546 C 308.743 206.246,310.417 206.703,313.291 206.999 C 317.429 207.426,317.303 207.212,317.185 213.592 L 317.087 218.835 297.476 218.943 C 273.293 219.075,276.117 219.803,276.117 213.438 C 276.117 207.306,275.995 207.491,280.328 206.997 C 282.051 206.801,283.992 206.365,284.643 206.028 L 285.825 205.417 285.825 182.737 L 285.825 160.056 284.914 159.339 C 284.412 158.945,282.534 158.119,280.739 157.504 C 275.879 155.839,276.138 156.553,277.352 148.155 C 278.001 143.668,276.490 144.054,292.964 144.170 L 307.379 144.272 307.573 174.822 M228.648 158.728 C 229.346 158.814,230.394 158.813,230.978 158.724 C 231.561 158.635,230.990 158.565,229.709 158.567 C 228.427 158.569,227.950 158.642,228.648 158.728 M224.466 159.299 C 221.659 160.487,220.659 161.092,219.458 162.330 C 215.840 166.059,215.161 173.970,218.075 178.450 C 222.276 184.912,235.645 184.984,240.442 178.571 C 245.679 171.570,240.893 158.670,233.131 158.862 C 232.256 158.884,232.415 159.005,233.932 159.471 C 245.774 163.107,244.933 180.047,232.789 182.511 C 226.117 183.864,219.719 181.449,217.591 176.773 C 215.324 171.791,218.565 160.777,222.298 160.777 C 222.601 160.777,222.906 160.642,222.977 160.477 C 223.049 160.312,223.981 159.892,225.049 159.543 C 226.117 159.195,226.641 158.904,226.214 158.898 C 225.786 158.892,225.000 159.072,224.466 159.299 M257.368 159.072 C 257.238 159.202,257.585 160.028,258.140 160.907 C 262.738 168.189,263.139 176.462,259.284 184.466 C 257.457 188.257,253.813 192.207,250.458 194.033 C 249.361 194.630,248.666 195.186,248.914 195.269 C 249.162 195.352,249.661 195.176,250.022 194.877 C 250.384 194.579,251.189 194.081,251.811 193.770 C 255.532 191.910,261.359 183.723,261.359 180.356 C 261.359 179.925,261.558 179.374,261.802 179.130 C 262.439 178.493,262.417 169.541,261.773 167.573 C 261.494 166.718,260.588 164.651,259.759 162.978 C 258.040 159.508,258.005 159.345,258.932 159.103 C 259.378 158.986,259.266 158.910,258.608 158.880 C 258.057 158.855,257.499 158.942,257.368 159.072 M246.214 196.000 C 241.436 198.100,230.084 199.020,222.045 197.959 L 219.819 197.665 218.841 199.213 C 218.304 200.065,217.864 200.865,217.864 200.991 C 217.864 201.330,218.793 200.338,219.526 199.216 C 220.159 198.249,220.201 198.242,223.384 198.590 C 232.928 199.632,245.473 198.177,247.904 195.747 C 248.458 195.192,247.843 195.284,246.214 196.000 M217.165 202.042 C 215.754 203.742,215.887 204.610,217.590 204.810 C 220.164 205.113,231.506 205.831,233.010 205.786 L 234.369 205.746 233.041 205.433 C 232.310 205.261,228.728 204.994,225.080 204.840 C 217.007 204.499,215.202 203.872,217.630 202.254 C 217.853 202.106,217.935 201.883,217.811 201.759 C 217.688 201.636,217.397 201.763,217.165 202.042 M327.042 202.718 C 327.020 203.466,327.172 204.340,327.379 204.660 C 327.842 205.377,327.842 204.345,327.379 202.524 L 327.082 201.359 327.042 202.718 M327.800 206.408 C 327.811 209.459,333.975 217.087,336.428 217.087 C 336.705 217.087,337.098 217.237,337.301 217.420 C 340.318 220.137,360.334 220.166,364.583 217.460 C 365.341 216.978,365.577 216.943,359.235 218.231 C 343.537 221.419,332.167 217.333,328.497 207.184 C 327.892 205.511,327.796 205.404,327.800 206.408 M237.087 206.045 C 237.728 206.129,240.262 206.394,242.718 206.634 C 246.843 207.037,252.649 208.011,255.922 208.850 C 265.453 211.291,270.554 220.779,268.326 231.923 C 266.400 241.558,257.774 248.837,245.243 251.401 C 244.785 251.495,244.976 251.579,245.706 251.605 C 253.933 251.904,266.484 241.968,268.458 233.592 C 272.624 215.913,263.202 206.849,239.806 206.029 C 237.670 205.954,236.447 205.961,237.087 206.045 M194.973 214.309 C 194.941 215.677,196.506 217.796,198.940 219.680 C 199.829 220.368,199.927 220.602,199.508 221.033 C 196.509 224.114,194.340 227.434,193.442 230.319 C 192.904 232.044,192.871 238.703,193.398 239.029 C 193.612 239.161,193.786 239.610,193.786 240.026 C 193.786 242.118,197.045 246.264,200.035 247.975 C 203.088 249.722,208.278 251.632,209.903 251.607 C 210.544 251.597,210.893 251.537,210.680 251.473 C 210.466 251.409,209.505 251.142,208.544 250.881 C 192.286 246.454,188.149 232.816,199.672 221.635 C 200.630 220.706,200.665 220.787,198.395 218.699 C 197.227 217.626,196.109 216.147,195.698 215.132 C 195.176 213.845,194.989 213.633,194.973 214.309 M213.909 224.871 C 210.620 226.790,209.718 233.583,212.447 235.879 C 217.176 239.859,236.413 240.381,243.445 236.722 C 245.116 235.852,247.401 232.902,246.838 232.340 C 246.720 232.222,246.465 232.543,246.270 233.053 C 245.027 236.315,240.976 237.977,233.064 238.470 C 214.981 239.598,207.465 235.471,212.697 227.287 C 213.999 225.251,214.423 225.004,217.087 224.730 C 218.100 224.626,217.951 224.577,216.505 224.540 C 215.437 224.512,214.269 224.661,213.909 224.871 M224.854 225.434 C 227.311 225.728,230.860 225.980,232.741 225.994 C 234.622 226.008,236.894 226.186,237.789 226.389 C 238.685 226.593,240.437 226.869,241.682 227.004 C 243.643 227.215,244.152 227.453,245.469 228.770 C 246.335 229.636,246.990 230.053,246.990 229.737 C 246.990 227.461,242.875 226.192,233.592 225.608 C 221.465 224.844,219.610 224.808,224.854 225.434 M211.760 251.870 C 213.612 253.839,242.150 253.903,244.078 251.943 C 244.340 251.675,244.027 251.639,243.107 251.829 C 236.760 253.143,220.251 253.140,212.987 251.825 C 212.145 251.672,211.593 251.693,211.760 251.870 " stroke="none" fill="#a09c99" fill-rule="evenodd"></path><path id="path4" d="M90.291 107.762 C 91.359 108.052,92.738 108.482,93.355 108.719 C 95.822 109.663,162.517 177.046,163.288 179.373 C 164.178 182.058,163.911 185.008,162.576 187.247 C 160.696 190.399,94.954 255.739,93.089 256.309 C 92.191 256.584,91.643 256.875,91.872 256.957 C 93.488 257.535,95.948 255.228,128.942 222.188 C 165.483 185.596,164.272 186.956,164.272 182.524 C 164.272 178.323,165.316 179.486,128.643 142.819 C 91.881 106.062,93.029 107.100,89.233 107.210 C 88.747 107.224,89.223 107.473,90.291 107.762 M290.874 107.524 C 281.947 109.482,278.676 122.000,285.202 129.224 C 289.435 133.910,299.833 134.025,304.539 129.440 C 308.930 125.163,309.079 114.964,304.814 110.699 C 301.947 107.832,295.826 106.438,290.874 107.524 M84.898 108.403 C 83.309 109.241,69.126 123.055,69.126 123.765 C 69.126 124.060,83.426 138.595,85.657 140.567 C 85.768 140.665,87.129 140.698,88.681 140.641 C 90.442 140.575,92.151 140.756,93.227 141.121 C 94.629 141.598,94.815 141.605,94.219 141.161 C 93.266 140.449,90.683 140.075,88.089 140.273 L 86.019 140.431 78.318 132.837 C 74.082 128.660,70.448 124.935,70.243 124.558 C 69.694 123.549,69.961 123.218,77.051 116.107 C 82.846 110.296,84.904 108.646,87.379 107.827 C 87.772 107.697,87.709 107.630,87.184 107.621 C 86.757 107.613,85.729 107.965,84.898 108.403 M299.684 108.283 C 305.204 110.089,307.307 113.295,307.310 119.907 C 307.312 123.802,307.192 124.338,305.679 127.219 C 302.784 132.731,291.642 134.142,286.328 129.671 C 282.040 126.062,281.095 118.797,284.135 112.800 C 285.072 110.951,285.811 110.307,288.711 108.810 C 291.334 107.456,296.412 107.213,299.684 108.283 M335.264 121.253 C 335.055 121.525,334.673 123.181,334.415 124.933 C 332.842 135.614,328.149 141.491,319.585 143.506 C 315.701 144.420,315.728 144.368,315.728 150.870 C 315.728 157.642,315.411 157.280,321.340 157.288 C 323.914 157.291,326.236 157.431,326.502 157.600 C 326.874 157.836,327.007 162.885,327.087 179.827 L 327.191 201.748 327.285 179.577 L 327.379 157.406 326.389 156.956 C 325.823 156.697,323.501 156.505,320.953 156.505 L 316.505 156.505 316.505 150.522 L 316.505 144.539 318.532 144.260 C 327.682 143.002,335.046 133.680,335.132 123.249 C 335.149 121.266,334.896 121.328,342.427 121.476 L 348.350 121.592 348.350 131.638 C 348.350 142.483,348.402 142.935,349.653 142.868 C 350.310 142.832,350.342 142.785,349.806 142.645 C 349.432 142.547,349.090 142.436,349.045 142.399 C 349.000 142.361,348.869 137.524,348.754 131.650 L 348.544 120.971 342.094 120.865 C 337.226 120.784,335.551 120.880,335.264 121.253 M61.748 131.179 C 61.020 131.433,45.222 147.184,45.694 147.184 C 45.884 147.184,49.508 143.689,53.748 139.417 C 57.988 135.146,61.746 131.650,62.099 131.650 C 62.930 131.650,78.172 146.886,78.505 148.049 L 78.758 148.932 78.796 148.057 C 78.860 146.618,62.869 130.787,61.748 131.179 M96.635 142.911 C 98.561 144.306,100.007 146.487,100.620 148.919 C 100.868 149.904,101.152 150.628,101.251 150.529 C 102.326 149.454,97.324 141.748,95.551 141.748 C 95.264 141.748,95.752 142.271,96.635 142.911 M351.456 142.913 C 351.990 143.084,352.777 143.229,353.204 143.235 L 353.981 143.246 353.204 142.913 C 352.777 142.729,351.990 142.584,351.456 142.590 L 350.485 142.602 351.456 142.913 M356.618 142.813 C 358.069 142.888,360.341 142.887,361.667 142.811 C 362.993 142.736,361.806 142.674,359.029 142.675 C 356.252 142.676,355.167 142.738,356.618 142.813 M369.029 143.072 C 369.629 143.521,369.709 144.341,369.709 150.043 L 369.709 156.505 367.864 156.519 C 366.850 156.526,362.228 156.520,357.594 156.505 C 349.446 156.479,349.153 156.505,348.736 157.285 C 347.971 158.714,348.397 196.736,349.197 198.447 C 351.564 203.510,357.435 204.760,366.718 202.179 C 369.911 201.292,369.793 201.210,371.009 205.152 C 371.617 207.124,372.359 209.443,372.659 210.304 C 373.558 212.888,373.412 213.315,371.358 214.119 C 370.344 214.515,368.964 215.083,368.291 215.381 C 367.618 215.679,366.798 215.922,366.469 215.922 C 366.140 215.922,365.775 216.078,365.658 216.268 C 365.540 216.458,364.875 216.698,364.178 216.802 C 363.482 216.906,360.990 217.360,358.641 217.810 C 341.462 221.102,330.025 215.714,327.966 203.358 C 327.829 202.536,327.626 201.954,327.514 202.065 C 326.449 203.131,330.040 211.586,332.523 213.859 C 339.902 220.615,357.048 220.952,371.364 214.620 C 374.052 213.432,374.116 213.061,372.485 208.155 C 371.881 206.340,371.142 204.010,370.842 202.978 C 370.211 200.807,370.710 200.851,363.495 202.319 C 357.311 203.578,352.643 202.779,350.795 200.146 C 348.970 197.547,348.932 197.065,348.932 176.699 L 348.932 157.476 359.417 157.266 C 365.184 157.150,369.947 157.019,370.000 156.974 C 370.720 156.373,369.987 142.975,369.223 142.783 C 368.429 142.583,368.411 142.609,369.029 143.072 M220.777 144.648 C 212.666 145.871,207.042 148.515,202.472 153.252 C 200.204 155.603,196.850 161.251,197.397 161.798 C 197.525 161.926,198.236 160.719,198.977 159.115 C 201.469 153.721,206.415 149.487,213.010 147.101 C 219.262 144.840,226.178 144.060,233.539 144.785 C 239.507 145.373,241.188 145.305,236.893 144.649 C 232.804 144.025,224.910 144.025,220.777 144.648 M278.175 144.558 C 277.816 145.029,277.163 148.872,276.669 153.418 C 276.387 156.016,276.381 156.011,280.739 157.504 C 282.534 158.119,284.412 158.945,284.914 159.339 L 285.825 160.056 285.825 182.733 L 285.825 205.410 284.974 205.865 C 284.506 206.116,283.676 206.456,283.129 206.622 C 282.164 206.915,282.171 206.924,283.355 206.957 C 284.026 206.975,284.987 206.656,285.491 206.248 L 286.408 205.506 286.408 182.812 C 286.408 163.829,286.318 160.011,285.859 159.458 C 285.309 158.796,282.336 157.282,281.586 157.282 C 281.367 157.282,280.212 156.850,279.020 156.323 L 276.852 155.364 277.102 152.925 C 277.240 151.583,277.511 149.874,277.703 149.126 C 277.896 148.379,278.055 147.205,278.056 146.519 C 278.060 144.481,278.328 144.447,293.285 144.558 L 306.990 144.660 307.090 175.146 L 307.189 205.631 308.061 206.302 C 308.540 206.671,309.456 206.969,310.097 206.965 C 311.239 206.956,311.233 206.946,309.777 206.427 C 308.960 206.135,308.174 205.779,308.029 205.635 C 307.885 205.490,307.680 191.625,307.573 174.822 L 307.379 144.272 292.964 144.170 C 281.719 144.091,278.467 144.176,278.175 144.558 M240.642 145.728 C 240.741 145.888,247.093 146.019,254.757 146.019 C 265.485 146.019,268.762 146.131,268.995 146.505 C 269.467 147.261,269.429 157.041,268.953 157.373 C 268.728 157.530,267.408 157.673,266.019 157.691 C 264.631 157.710,263.146 157.889,262.718 158.089 C 262.205 158.330,263.058 158.375,265.236 158.221 C 270.157 157.874,269.903 158.234,269.903 151.625 C 269.903 147.473,269.775 145.949,269.417 145.821 C 268.566 145.515,240.454 145.425,240.642 145.728 M30.874 161.665 C 17.830 174.786,15.602 177.091,15.972 177.085 C 16.051 177.083,22.752 170.443,30.861 162.328 C 38.971 154.212,45.437 147.579,45.230 147.587 C 45.023 147.595,38.563 153.930,30.874 161.665 M78.156 150.485 C 78.160 151.340,78.240 151.644,78.333 151.161 C 78.426 150.677,78.422 149.978,78.325 149.607 C 78.228 149.236,78.152 149.631,78.156 150.485 M100.867 154.175 C 100.716 154.709,100.591 155.303,100.588 155.495 C 100.580 156.023,116.519 171.952,117.245 172.142 C 117.592 172.233,118.223 172.172,118.647 172.006 C 119.261 171.766,119.156 171.700,118.129 171.678 C 116.119 171.635,101.689 157.084,101.362 154.770 C 101.164 153.369,101.111 153.306,100.867 154.175 M78.639 155.922 C 78.970 157.429,80.362 159.317,82.963 161.787 L 85.049 163.768 85.049 183.269 C 85.049 195.821,84.907 203.034,84.651 203.512 C 84.331 204.111,84.368 204.211,84.845 204.027 C 85.365 203.828,85.437 201.324,85.437 183.500 L 85.437 163.200 83.592 161.700 C 81.111 159.683,80.515 158.977,79.364 156.699 C 78.647 155.279,78.452 155.070,78.639 155.922 M229.223 158.326 C 229.597 158.424,230.209 158.424,230.583 158.326 C 230.956 158.228,230.650 158.148,229.903 158.148 C 229.155 158.148,228.850 158.228,229.223 158.326 M222.602 159.470 C 212.851 164.187,213.361 179.463,223.387 182.963 C 225.737 183.784,232.157 183.994,233.959 183.309 C 235.465 182.737,234.910 182.327,233.360 182.868 C 226.765 185.167,218.265 181.340,216.647 175.343 C 214.513 167.437,219.063 159.981,226.796 158.712 C 227.402 158.612,227.184 158.538,226.214 158.514 C 225.272 158.490,223.849 158.867,222.602 159.470 M233.204 158.801 C 244.003 160.586,246.357 177.014,236.505 181.841 C 235.640 182.264,235.406 182.510,235.862 182.515 C 239.624 182.562,244.495 173.800,243.169 169.373 C 242.921 168.547,242.718 167.507,242.718 167.063 C 242.718 163.455,237.049 158.371,233.165 158.495 L 231.650 158.544 233.204 158.801 M256.909 158.809 C 256.786 159.008,257.342 160.363,258.145 161.819 C 263.506 171.538,262.085 182.757,254.560 190.138 C 252.949 191.717,251.395 193.010,251.106 193.010 C 250.817 193.010,250.369 193.264,250.111 193.575 C 249.526 194.280,243.313 196.631,240.194 197.327 C 238.913 197.613,238.191 197.912,238.592 197.990 C 240.135 198.294,246.757 196.087,250.432 194.044 C 258.416 189.606,263.277 179.045,261.559 169.874 C 260.903 166.373,259.844 163.605,258.108 160.856 C 256.978 159.066,257.034 158.976,259.417 158.718 C 260.559 158.594,260.485 158.561,258.955 158.509 C 257.953 158.475,257.032 158.610,256.909 158.809 M196.505 164.125 C 195.658 166.878,195.754 177.461,196.644 179.612 C 197.362 181.347,197.345 181.005,196.487 176.505 C 195.976 173.828,196.230 166.660,196.902 164.775 C 197.146 164.090,197.287 163.238,197.216 162.880 C 197.145 162.522,196.825 163.082,196.505 164.125 M94.816 166.699 C 94.871 168.990,94.887 169.030,95.107 167.409 C 95.235 166.464,95.553 165.621,95.814 165.536 C 96.801 165.211,109.198 177.972,109.520 179.644 L 109.814 181.165 109.858 179.792 C 109.900 178.508,109.440 177.958,102.792 171.345 C 94.729 163.325,94.735 163.329,94.816 166.699 M121.165 171.609 C 122.126 171.778,123.437 172.042,124.078 172.196 C 125.039 172.427,125.120 172.399,124.544 172.033 C 124.160 171.790,122.849 171.526,121.631 171.446 C 119.523 171.309,119.501 171.317,121.165 171.609 M125.997 173.022 C 126.411 173.336,126.925 173.592,127.139 173.592 C 127.352 173.592,127.188 173.336,126.773 173.022 C 126.359 172.708,125.845 172.452,125.631 172.452 C 125.417 172.452,125.582 172.708,125.997 173.022 M129.083 175.091 C 130.734 176.984,131.649 178.852,132.056 181.165 C 132.323 182.682,132.331 182.688,132.379 181.432 C 132.445 179.666,130.813 176.381,129.060 174.750 L 127.605 173.398 129.083 175.091 M94.845 189.191 L 94.757 203.818 96.319 205.055 C 98.370 206.679,100.045 209.161,100.613 211.416 C 100.865 212.416,101.152 213.153,101.251 213.053 C 101.998 212.306,99.964 208.254,97.739 206.057 L 95.340 203.689 95.136 189.126 L 94.933 174.563 94.845 189.191 M14.535 182.964 C 14.796 186.607,15.225 187.094,40.296 212.203 C 53.561 225.488,64.266 236.085,64.085 235.752 C 63.904 235.418,60.115 231.542,55.665 227.138 C 51.214 222.733,45.905 217.403,43.866 215.293 C 41.828 213.183,38.245 209.585,35.905 207.298 C 17.491 189.302,15.639 187.189,14.875 183.301 L 14.379 180.777 14.535 182.964 M109.181 183.073 C 108.967 190.473,116.398 196.551,123.400 194.703 C 124.345 194.453,123.709 194.369,120.876 194.369 C 114.327 194.369,110.284 190.567,109.518 183.689 C 109.245 181.246,109.235 181.226,109.181 183.073 M197.282 181.594 C 197.282 183.356,201.680 189.321,204.590 191.506 C 205.803 192.417,206.939 193.280,207.113 193.423 C 207.288 193.566,205.095 196.022,202.239 198.880 C 193.654 207.476,192.504 213.319,198.346 218.659 C 200.667 220.780,200.633 220.703,199.672 221.635 C 191.167 229.887,191.209 241.701,199.762 247.130 C 202.378 248.790,208.662 251.287,210.125 251.247 C 210.892 251.226,208.224 250.097,207.407 250.097 C 207.044 250.097,205.842 249.660,204.735 249.126 C 203.628 248.592,202.591 248.155,202.431 248.155 C 201.655 248.155,197.346 244.812,196.505 243.558 C 191.929 236.729,192.944 229.753,199.565 222.524 C 201.316 220.613,201.521 219.971,200.485 219.642 C 199.077 219.194,196.594 216.309,195.966 214.391 C 194.300 209.296,195.619 206.283,202.594 199.252 C 208.617 193.181,208.438 193.736,205.162 191.268 C 202.174 189.016,199.981 186.389,198.635 183.447 C 197.786 181.590,197.282 180.900,197.282 181.594 M132.214 184.757 C 131.591 188.407,129.235 191.825,126.259 193.398 C 125.487 193.806,125.039 194.148,125.264 194.158 C 127.836 194.265,131.948 189.088,132.575 184.951 C 132.883 182.917,132.558 182.742,132.214 184.757 M219.916 197.235 C 218.973 197.874,215.502 203.655,215.609 204.409 C 215.746 205.368,217.587 205.570,229.709 205.960 C 238.302 206.237,236.878 205.997,226.602 205.437 C 214.973 204.803,215.264 204.933,217.566 201.374 C 217.837 200.955,218.454 199.949,218.939 199.138 L 219.819 197.665 222.045 197.864 C 224.468 198.082,224.410 197.893,221.884 197.344 C 220.997 197.151,220.112 197.102,219.916 197.235 M228.464 198.347 C 230.129 198.420,232.751 198.420,234.290 198.346 C 235.828 198.273,234.466 198.213,231.262 198.214 C 228.058 198.214,226.799 198.274,228.464 198.347 M82.081 205.534 C 80.476 206.940,78.442 209.924,78.455 210.853 C 78.460 211.185,78.797 210.721,79.206 209.822 C 79.614 208.923,80.871 207.307,82.000 206.230 C 84.280 204.056,84.338 203.558,82.081 205.534 M237.694 206.345 C 237.895 206.567,246.467 207.665,250.485 207.984 C 252.196 208.120,252.204 208.116,250.874 207.759 C 248.627 207.156,237.329 205.944,237.694 206.345 M277.864 207.271 C 276.223 207.675,276.117 208.050,276.117 213.438 C 276.117 219.803,273.293 219.075,297.476 218.943 L 317.087 218.835 317.185 213.592 C 317.302 207.268,317.334 207.331,313.932 207.172 C 312.464 207.102,311.786 207.124,312.427 207.219 C 313.068 207.314,314.340 207.588,315.254 207.827 L 316.915 208.262 316.807 213.354 L 316.699 218.447 296.796 218.547 L 276.893 218.648 276.893 213.417 L 276.893 208.185 278.350 207.805 C 279.150 207.597,280.330 207.354,280.971 207.266 C 281.750 207.160,281.557 207.102,280.388 207.094 C 279.427 207.086,278.291 207.166,277.864 207.271 M253.592 208.708 C 254.340 209.012,255.299 209.275,255.725 209.291 C 257.076 209.342,261.958 211.991,263.480 213.498 C 270.636 220.585,269.872 234.739,261.914 242.524 C 257.916 246.435,255.585 247.815,250.071 249.534 C 244.599 251.241,244.715 251.196,245.710 251.231 C 246.180 251.248,246.967 251.108,247.457 250.920 C 247.948 250.732,249.573 250.178,251.068 249.688 C 259.000 247.093,264.828 241.832,267.610 234.757 C 271.842 223.992,266.237 211.563,255.922 208.839 C 253.249 208.133,252.009 208.063,253.592 208.708 M78.186 214.175 C 78.187 215.670,78.258 216.234,78.342 215.428 C 78.426 214.622,78.424 213.399,78.339 212.710 C 78.253 212.020,78.184 212.680,78.186 214.175 M78.628 218.144 C 78.878 219.856,80.405 222.164,82.257 223.632 C 84.516 225.421,84.527 225.124,82.280 223.022 C 80.382 221.247,79.463 219.895,78.776 217.867 C 78.490 217.024,78.470 217.062,78.628 218.144 M100.225 219.172 C 100.208 219.571,99.057 221.013,97.667 222.376 C 95.490 224.511,94.566 225.692,96.036 224.462 C 96.294 224.246,96.953 223.735,97.500 223.326 C 98.852 222.316,100.707 219.573,100.458 218.952 C 100.334 218.643,100.244 218.729,100.225 219.172 M213.583 224.610 C 211.556 226.671,211.262 227.088,210.688 228.714 C 208.817 234.018,212.835 239.005,218.807 238.792 C 219.800 238.757,219.708 238.693,218.260 238.409 C 211.390 237.063,208.942 232.791,211.990 227.463 C 213.762 224.368,213.728 224.377,221.065 224.836 C 224.538 225.053,230.175 225.401,233.592 225.608 C 243.138 226.187,246.585 227.309,247.105 230.007 C 247.255 230.780,247.279 230.764,247.326 229.859 C 247.507 226.382,244.571 225.740,222.524 224.442 C 219.214 224.246,216.064 223.985,215.524 223.860 C 214.798 223.691,214.295 223.885,213.583 224.610 M85.468 225.390 C 86.019 225.712,87.417 226.070,88.575 226.185 L 90.680 226.394 88.350 225.875 C 87.068 225.589,85.670 225.231,85.243 225.080 C 84.809 224.926,84.908 225.063,85.468 225.390 M93.855 225.109 C 93.715 225.249,92.944 225.491,92.140 225.647 C 90.807 225.905,90.782 225.933,91.845 225.961 C 92.485 225.978,93.447 225.742,93.981 225.437 C 94.515 225.132,94.762 224.876,94.531 224.868 C 94.299 224.861,93.995 224.969,93.855 225.109 M246.883 232.689 C 246.129 235.475,241.767 238.285,237.864 238.499 L 236.699 238.563 237.780 238.726 C 241.265 239.252,247.690 235.097,247.304 232.568 C 247.166 231.664,247.160 231.666,246.883 232.689 M68.932 240.764 C 77.129 249.307,84.087 256.004,85.327 256.544 C 87.319 257.410,87.337 257.171,85.367 256.016 C 83.396 254.862,81.004 252.678,75.463 246.973 C 73.502 244.953,70.269 241.728,68.279 239.806 C 64.731 236.380,64.743 236.399,68.932 240.764 M220.864 239.285 C 221.729 239.626,234.440 239.624,235.654 239.282 C 236.147 239.143,232.866 239.025,228.363 239.021 C 223.859 239.016,220.485 239.135,220.864 239.285 M213.592 251.927 C 217.937 252.862,239.182 252.861,242.524 251.925 C 244.255 251.440,244.455 251.325,243.301 251.477 C 235.127 252.554,224.716 252.553,212.621 251.473 C 211.037 251.331,211.215 251.414,213.592 251.927 M88.252 257.366 C 88.840 257.455,89.801 257.455,90.388 257.366 C 90.976 257.277,90.495 257.204,89.320 257.204 C 88.146 257.204,87.665 257.277,88.252 257.366 " stroke="none" fill="#747470" fill-rule="evenodd"></path></g></svg>