<svg id="svg" version="1.1" xmlns="http://www.w3.org/2000/svg" xmlns:xlink="http://www.w3.org/1999/xlink" width="400" height="400" viewBox="0, 0, 400,400"><g id="svgg"><path id="path0" d="M69.328 91.842 C 69.193 92.196,69.303 95.031,69.573 98.142 C 69.843 101.254,70.220 105.600,70.411 107.800 C 70.602 110.000,70.958 113.960,71.203 116.600 C 71.447 119.240,71.801 123.290,71.990 125.600 C 72.396 130.571,73.813 146.441,74.382 152.400 C 74.603 154.710,74.972 158.760,75.203 161.400 C 75.656 166.592,76.076 171.317,76.995 181.600 C 77.320 185.230,77.771 190.360,77.997 193.000 C 78.224 195.640,78.580 199.600,78.790 201.800 C 78.999 204.000,79.352 207.870,79.574 210.400 C 80.768 223.998,81.072 227.396,82.617 244.400 C 82.966 248.250,83.414 253.380,83.613 255.800 C 83.811 258.220,84.160 262.180,84.389 264.600 C 84.618 267.020,84.976 270.980,85.184 273.400 C 85.644 278.742,86.627 289.741,87.203 296.000 C 87.437 298.530,87.796 302.580,88.003 305.000 C 88.503 310.863,89.104 317.624,89.602 323.000 C 89.826 325.420,90.276 330.460,90.603 334.200 C 90.931 337.940,91.375 342.890,91.591 345.200 C 91.806 347.510,92.104 351.248,92.253 353.507 C 92.593 358.692,92.265 358.385,99.600 360.387 C 103.010 361.318,107.330 362.518,109.200 363.052 C 113.199 364.196,113.098 364.168,123.400 366.994 C 127.800 368.202,133.650 369.821,136.400 370.593 C 139.150 371.365,145.630 373.168,150.800 374.600 C 161.470 377.554,161.436 377.545,167.400 379.239 C 169.820 379.926,172.790 380.751,174.000 381.070 C 178.332 382.216,188.242 384.955,190.200 385.548 C 190.860 385.748,193.245 386.412,195.500 387.024 L 199.600 388.137 203.700 387.024 C 205.955 386.412,208.340 385.748,209.000 385.548 C 210.179 385.191,216.969 383.296,221.100 382.172 C 227.311 380.481,233.162 378.870,234.800 378.398 C 235.570 378.177,239.800 377.006,244.200 375.797 C 252.316 373.567,254.445 372.973,256.600 372.338 C 258.962 371.642,268.847 368.917,272.900 367.844 C 274.055 367.539,276.980 366.726,279.400 366.039 C 286.176 364.115,286.186 364.112,293.200 362.200 C 301.191 360.022,302.479 359.661,304.826 358.943 L 306.653 358.385 307.133 353.692 C 307.397 351.112,308.056 343.870,308.598 337.600 C 309.140 331.330,309.763 324.310,309.981 322.000 C 310.460 316.947,311.023 310.692,311.585 304.200 C 311.813 301.560,312.267 296.430,312.593 292.800 C 312.919 289.170,313.370 284.040,313.595 281.400 C 313.820 278.760,314.176 274.890,314.386 272.800 C 314.596 270.710,314.963 266.660,315.203 263.800 C 315.442 260.940,315.808 256.800,316.017 254.600 C 316.225 252.400,316.848 245.380,317.400 239.000 C 317.953 232.620,318.589 225.420,318.813 223.000 C 319.037 220.580,319.389 216.710,319.593 214.400 C 319.798 212.090,320.154 208.130,320.385 205.600 C 320.930 199.625,321.858 189.114,322.397 182.800 C 322.632 180.050,323.002 175.910,323.218 173.600 C 324.216 162.946,324.751 156.973,326.191 140.400 C 326.735 134.130,327.359 127.110,327.576 124.800 C 327.793 122.490,328.167 118.350,328.406 115.600 C 328.645 112.850,329.002 108.890,329.199 106.800 C 330.546 92.510,330.575 91.955,329.977 91.577 C 328.810 90.839,69.612 91.103,69.328 91.842 M281.440 149.300 C 281.291 151.115,280.909 155.480,280.590 159.000 C 280.270 162.520,279.814 167.740,279.575 170.600 C 279.337 173.460,279.012 176.430,278.853 177.200 L 278.564 178.600 216.031 178.701 L 153.497 178.803 153.769 182.501 C 153.919 184.536,154.202 187.730,154.398 189.600 C 154.594 191.470,154.949 195.340,155.187 198.200 C 155.953 207.389,156.515 211.793,156.963 212.098 C 157.203 212.263,183.899 212.278,216.287 212.133 C 269.873 211.892,275.197 211.926,275.418 212.504 C 275.652 213.112,275.244 219.454,274.395 228.400 C 274.175 230.710,273.820 234.670,273.606 237.200 C 273.257 241.315,272.482 250.022,271.204 264.200 C 270.966 266.840,270.601 270.890,270.394 273.200 C 270.187 275.510,269.829 279.470,269.599 282.000 C 268.852 290.205,268.063 299.275,267.597 305.000 C 266.917 313.368,267.192 312.813,263.188 313.893 C 261.325 314.395,258.630 315.143,257.200 315.555 C 255.770 315.967,252.890 316.780,250.800 317.361 C 248.710 317.943,246.370 318.595,245.600 318.811 C 244.830 319.027,240.600 320.194,236.200 321.403 C 231.800 322.612,227.570 323.777,226.800 323.991 C 226.030 324.206,223.690 324.856,221.600 325.436 C 219.510 326.016,216.720 326.805,215.400 327.189 C 214.080 327.574,211.470 328.296,209.600 328.794 C 207.730 329.292,204.767 330.125,203.016 330.643 L 199.832 331.587 196.416 330.591 C 194.537 330.043,188.770 328.427,183.600 326.999 C 178.430 325.572,173.570 324.223,172.800 324.002 C 172.030 323.781,167.800 322.610,163.400 321.399 C 159.000 320.188,154.500 318.940,153.400 318.627 C 152.300 318.313,149.960 317.665,148.200 317.186 C 146.440 316.707,144.550 316.170,144.000 315.993 C 143.450 315.815,140.840 315.095,138.200 314.393 C 132.192 312.796,132.516 313.172,132.018 307.200 C 131.789 304.450,131.147 297.160,130.591 291.000 C 129.624 280.279,129.275 276.323,128.446 266.639 C 128.240 264.240,128.166 262.033,128.281 261.734 C 128.452 261.287,131.313 261.209,144.534 261.296 L 160.578 261.400 160.856 263.029 C 161.009 263.926,161.515 269.146,161.981 274.629 C 163.011 286.768,163.061 287.097,163.930 287.562 C 164.558 287.899,166.910 288.561,177.600 291.410 C 179.470 291.908,182.800 292.806,185.000 293.405 C 187.200 294.003,190.980 295.032,193.400 295.691 C 195.820 296.350,198.250 296.970,198.800 297.068 C 199.350 297.167,202.500 296.506,205.800 295.598 C 215.785 292.852,215.738 292.865,230.122 289.028 C 236.525 287.320,236.243 287.581,236.516 283.096 C 236.640 281.063,237.211 274.360,237.785 268.200 C 238.359 262.040,239.011 254.750,239.233 252.000 C 239.455 249.250,239.674 246.640,239.719 246.200 C 239.800 245.404,239.530 245.400,183.327 245.299 C 129.982 245.203,126.841 245.159,126.643 244.499 C 126.423 243.765,125.915 238.790,125.204 230.400 C 124.971 227.650,124.612 223.690,124.406 221.600 C 124.201 219.510,123.839 215.460,123.602 212.600 C 123.365 209.740,123.006 205.780,122.803 203.800 C 122.600 201.820,122.335 198.940,122.214 197.400 C 121.797 192.091,120.403 176.190,120.005 172.200 C 119.785 170.000,119.420 165.950,119.192 163.200 C 118.964 160.450,118.608 156.490,118.401 154.400 C 118.069 151.053,117.860 147.180,117.964 146.300 C 117.984 146.135,154.835 146.000,199.855 146.000 L 281.710 146.000 281.440 149.300 " stroke="none" fill="#e85327" fill-rule="evenodd"></path><path id="path1" d="M117.964 146.300 C 117.860 147.180,118.069 151.053,118.401 154.400 C 118.608 156.490,118.964 160.450,119.192 163.200 C 119.420 165.950,119.785 170.000,120.005 172.200 C 120.403 176.190,121.797 192.091,122.214 197.400 C 122.335 198.940,122.600 201.820,122.803 203.800 C 123.006 205.780,123.365 209.740,123.602 212.600 C 123.839 215.460,124.201 219.510,124.406 221.600 C 124.612 223.690,124.971 227.650,125.204 230.400 C 125.915 238.790,126.423 243.765,126.643 244.499 C 126.841 245.159,129.982 245.203,183.327 245.299 C 239.530 245.400,239.800 245.404,239.719 246.200 C 239.674 246.640,239.455 249.250,239.233 252.000 C 239.011 254.750,238.359 262.040,237.785 268.200 C 237.211 274.360,236.640 281.063,236.516 283.096 C 236.243 287.581,236.525 287.320,230.122 289.028 C 215.738 292.865,215.785 292.852,205.800 295.598 C 202.500 296.506,199.350 297.167,198.800 297.068 C 198.250 296.970,195.820 296.350,193.400 295.691 C 190.980 295.032,187.200 294.003,185.000 293.405 C 182.800 292.806,179.470 291.908,177.600 291.410 C 166.910 288.561,164.558 287.899,163.930 287.562 C 163.061 287.097,163.011 286.768,161.981 274.629 C 161.515 269.146,161.009 263.926,160.856 263.029 L 160.578 261.400 144.534 261.296 C 131.313 261.209,128.452 261.287,128.281 261.734 C 128.166 262.033,128.240 264.240,128.446 266.639 C 129.275 276.323,129.624 280.279,130.591 291.000 C 131.147 297.160,131.789 304.450,132.018 307.200 C 132.516 313.172,132.192 312.796,138.200 314.393 C 140.840 315.095,143.450 315.815,144.000 315.993 C 144.550 316.170,146.440 316.707,148.200 317.186 C 149.960 317.665,152.300 318.313,153.400 318.627 C 154.500 318.940,159.000 320.188,163.400 321.399 C 167.800 322.610,172.030 323.781,172.800 324.002 C 173.570 324.223,178.430 325.572,183.600 326.999 C 188.770 328.427,194.537 330.043,196.416 330.591 L 199.832 331.587 203.016 330.643 C 204.767 330.125,207.730 329.292,209.600 328.794 C 211.470 328.296,214.080 327.574,215.400 327.189 C 216.720 326.805,219.510 326.016,221.600 325.436 C 223.690 324.856,226.030 324.206,226.800 323.991 C 227.570 323.777,231.800 322.612,236.200 321.403 C 240.600 320.194,244.830 319.027,245.600 318.811 C 246.370 318.595,248.710 317.943,250.800 317.361 C 252.890 316.780,255.770 315.967,257.200 315.555 C 258.630 315.143,261.325 314.395,263.188 313.893 C 267.192 312.813,266.917 313.368,267.597 305.000 C 268.063 299.275,268.852 290.205,269.599 282.000 C 269.829 279.470,270.187 275.510,270.394 273.200 C 270.601 270.890,270.966 266.840,271.204 264.200 C 272.482 250.022,273.257 241.315,273.606 237.200 C 273.820 234.670,274.175 230.710,274.395 228.400 C 275.244 219.454,275.652 213.112,275.418 212.504 C 275.197 211.926,269.873 211.892,216.287 212.133 C 183.899 212.278,157.203 212.263,156.963 212.098 C 156.515 211.793,155.953 207.389,155.187 198.200 C 154.949 195.340,154.594 191.470,154.398 189.600 C 154.202 187.730,153.919 184.536,153.769 182.501 L 153.497 178.803 216.031 178.701 L 278.564 178.600 278.853 177.200 C 279.012 176.430,279.337 173.460,279.575 170.600 C 279.814 167.740,280.270 162.520,280.590 159.000 C 280.909 155.480,281.291 151.115,281.440 149.300 L 281.710 146.000 199.855 146.000 C 154.835 146.000,117.984 146.135,117.964 146.300 " stroke="none" fill="#f3f2f2" fill-rule="evenodd"></path><path id="path2" d="M0.000 200.000 L 0.000 399.200 200.000 399.200 L 400.000 399.200 400.000 200.000 L 400.000 0.800 200.000 0.800 L 0.000 0.800 0.000 200.000 M110.000 27.000 L 110.200 35.000 117.600 35.000 L 125.000 35.000 125.108 26.900 L 125.217 18.800 133.365 18.800 C 140.427 18.800,141.547 18.884,141.757 19.433 C 142.257 20.735,142.029 67.811,141.520 68.320 C 140.972 68.868,126.550 69.010,125.709 68.476 C 125.353 68.250,125.187 65.954,125.109 60.182 L 125.000 52.200 117.508 52.091 L 110.016 51.982 109.908 60.291 L 109.800 68.600 102.400 68.714 C 98.330 68.776,94.595 68.728,94.100 68.606 L 93.200 68.385 93.200 43.859 C 93.200 30.370,93.324 19.210,93.475 19.059 C 93.626 18.908,97.361 18.833,101.775 18.892 L 109.800 19.000 110.000 27.000 M143.439 42.667 C 143.540 56.516,143.457 66.694,143.239 67.400 C 143.002 68.168,142.856 59.606,142.834 43.633 C 142.815 29.902,142.905 18.772,143.034 18.900 C 143.162 19.029,143.345 29.724,143.439 42.667 M195.000 27.000 L 195.000 35.000 187.800 35.200 L 180.600 35.400 180.400 52.000 L 180.200 68.600 172.800 68.714 C 168.730 68.776,164.997 68.728,164.504 68.607 L 163.609 68.387 163.504 51.893 L 163.400 35.400 156.300 35.291 L 149.200 35.182 149.200 26.987 L 149.200 18.793 172.100 18.897 L 195.000 19.000 195.000 27.000 M220.065 19.500 C 220.389 19.885,221.408 21.460,222.329 23.000 C 230.462 36.601,230.302 36.419,231.783 33.800 C 232.280 32.920,234.180 29.770,236.005 26.800 C 237.830 23.830,239.675 20.812,240.106 20.092 L 240.888 18.785 249.544 18.892 L 258.200 19.000 258.303 43.692 L 258.406 68.383 257.503 68.605 C 257.006 68.727,253.270 68.776,249.200 68.714 L 241.800 68.600 241.600 56.608 L 241.400 44.615 236.021 52.922 C 232.715 58.028,230.427 61.184,230.085 61.114 C 229.778 61.051,227.249 57.453,224.464 53.117 C 221.679 48.782,219.265 45.227,219.100 45.217 C 218.935 45.208,218.800 50.324,218.800 56.586 C 218.800 67.433,218.763 67.991,218.026 68.386 C 216.454 69.228,202.890 68.915,202.414 68.026 C 201.967 67.191,201.803 20.580,202.243 19.433 C 202.629 18.425,219.213 18.488,220.065 19.500 M283.296 35.300 L 283.400 51.800 295.000 52.000 L 306.600 52.200 306.709 60.171 C 306.792 66.281,306.699 68.217,306.309 68.465 C 305.725 68.835,268.666 68.914,267.300 68.548 L 266.400 68.307 266.400 43.820 C 266.400 30.352,266.520 19.213,266.667 19.067 C 266.813 18.920,270.591 18.800,275.062 18.800 L 283.191 18.800 283.296 35.300 M284.809 35.374 C 284.823 44.132,284.737 51.396,284.618 51.516 C 284.498 51.635,284.400 44.383,284.400 35.400 C 284.400 26.417,284.486 19.153,284.592 19.258 C 284.697 19.364,284.795 26.616,284.809 35.374 M124.400 26.800 C 124.400 30.760,124.265 34.000,124.100 34.000 C 123.935 34.001,123.853 30.761,123.917 26.800 C 123.982 22.840,124.117 19.600,124.217 19.600 C 124.318 19.600,124.400 22.840,124.400 26.800 M152.905 36.682 C 152.414 36.777,151.514 36.779,150.905 36.687 C 150.297 36.595,150.700 36.517,151.800 36.514 C 152.900 36.511,153.397 36.587,152.905 36.682 M160.900 36.695 C 159.745 36.776,157.855 36.776,156.700 36.695 C 155.545 36.614,156.490 36.548,158.800 36.548 C 161.110 36.548,162.055 36.614,160.900 36.695 M188.326 36.699 L 182.051 36.820 181.916 37.910 C 181.785 38.968,181.774 38.962,181.560 37.700 L 181.339 36.400 187.969 36.489 L 194.600 36.578 188.326 36.699 M219.932 48.644 C 219.747 48.888,219.680 51.768,219.784 55.044 C 219.889 58.320,219.826 62.800,219.645 65.000 C 219.379 68.235,219.306 66.821,219.264 57.600 C 219.220 47.931,219.292 46.352,219.741 47.200 C 220.043 47.771,220.125 48.390,219.932 48.644 M124.313 60.700 L 124.227 68.600 124.013 61.000 C 123.896 56.820,123.856 53.265,123.924 53.100 C 124.317 52.144,124.391 53.587,124.313 60.700 M329.977 91.577 C 330.575 91.955,330.546 92.510,329.199 106.800 C 329.002 108.890,328.645 112.850,328.406 115.600 C 328.167 118.350,327.793 122.490,327.576 124.800 C 327.359 127.110,326.735 134.130,326.191 140.400 C 324.751 156.973,324.216 162.946,323.218 173.600 C 323.002 175.910,322.632 180.050,322.397 182.800 C 321.858 189.114,320.930 199.625,320.385 205.600 C 320.154 208.130,319.798 212.090,319.593 214.400 C 319.389 216.710,319.037 220.580,318.813 223.000 C 318.589 225.420,317.953 232.620,317.400 239.000 C 316.848 245.380,316.225 252.400,316.017 254.600 C 315.808 256.800,315.442 260.940,315.203 263.800 C 314.963 266.660,314.596 270.710,314.386 272.800 C 314.176 274.890,313.820 278.760,313.595 281.400 C 313.370 284.040,312.919 289.170,312.593 292.800 C 312.267 296.430,311.813 301.560,311.585 304.200 C 311.023 310.692,310.460 316.947,309.981 322.000 C 309.763 324.310,309.140 331.330,308.598 337.600 C 308.056 343.870,307.397 351.112,307.133 353.692 L 306.653 358.385 304.826 358.943 C 302.479 359.661,301.191 360.022,293.200 362.200 C 286.186 364.112,286.176 364.115,279.400 366.039 C 276.980 366.726,274.055 367.539,272.900 367.844 C 268.847 368.917,258.962 371.642,256.600 372.338 C 254.445 372.973,252.316 373.567,244.200 375.797 C 239.800 377.006,235.570 378.177,234.800 378.398 C 233.162 378.870,227.311 380.481,221.100 382.172 C 216.969 383.296,210.179 385.191,209.000 385.548 C 208.340 385.748,205.955 386.412,203.700 387.024 L 199.600 388.137 195.500 387.024 C 193.245 386.412,190.860 385.748,190.200 385.548 C 188.242 384.955,178.332 382.216,174.000 381.070 C 172.790 380.751,169.820 379.926,167.400 379.239 C 161.436 377.545,161.470 377.554,150.800 374.600 C 145.630 373.168,139.150 371.365,136.400 370.593 C 133.650 369.821,127.800 368.202,123.400 366.994 C 113.098 364.168,113.199 364.196,109.200 363.052 C 107.330 362.518,103.010 361.318,99.600 360.387 C 92.265 358.385,92.593 358.692,92.253 353.507 C 92.104 351.248,91.806 347.510,91.591 345.200 C 91.375 342.890,90.931 337.940,90.603 334.200 C 90.276 330.460,89.826 325.420,89.602 323.000 C 89.104 317.624,88.503 310.863,88.003 305.000 C 87.796 302.580,87.437 298.530,87.203 296.000 C 86.627 289.741,85.644 278.742,85.184 273.400 C 84.976 270.980,84.618 267.020,84.389 264.600 C 84.160 262.180,83.811 258.220,83.613 255.800 C 83.414 253.380,82.966 248.250,82.617 244.400 C 81.072 227.396,80.768 223.998,79.574 210.400 C 79.352 207.870,78.999 204.000,78.790 201.800 C 78.580 199.600,78.224 195.640,77.997 193.000 C 77.771 190.360,77.320 185.230,76.995 181.600 C 76.076 171.317,75.656 166.592,75.203 161.400 C 74.972 158.760,74.603 154.710,74.382 152.400 C 73.813 146.441,72.396 130.571,71.990 125.600 C 71.801 123.290,71.447 119.240,71.203 116.600 C 70.958 113.960,70.602 110.000,70.411 107.800 C 70.220 105.600,69.843 101.254,69.573 98.142 C 69.303 95.031,69.193 92.196,69.328 91.842 C 69.612 91.103,328.810 90.839,329.977 91.577 M331.090 97.293 C 331.001 98.012,330.926 97.520,330.924 96.200 C 330.922 94.880,330.995 94.292,331.086 94.893 C 331.177 95.494,331.179 96.574,331.090 97.293 M69.082 103.300 C 68.987 103.795,68.909 103.390,68.909 102.400 C 68.909 101.410,68.987 101.005,69.082 101.500 C 69.178 101.995,69.178 102.805,69.082 103.300 M330.283 106.895 C 330.187 107.393,330.105 107.080,330.101 106.200 C 330.096 105.320,330.175 104.913,330.275 105.295 C 330.375 105.678,330.379 106.398,330.283 106.895 M329.483 117.695 C 329.387 118.193,329.305 117.880,329.301 117.000 C 329.296 116.120,329.375 115.713,329.475 116.095 C 329.575 116.478,329.579 117.198,329.483 117.695 M70.690 123.293 C 70.601 124.012,70.526 123.520,70.524 122.200 C 70.522 120.880,70.595 120.292,70.686 120.893 C 70.777 121.494,70.779 122.574,70.690 123.293 M326.689 147.300 C 326.601 148.015,326.528 147.430,326.528 146.000 C 326.528 144.570,326.601 143.985,326.689 144.700 C 326.778 145.415,326.778 146.585,326.689 147.300 M73.476 151.500 C 73.375 151.885,73.293 151.570,73.293 150.800 C 73.293 150.030,73.375 149.715,73.476 150.100 C 73.576 150.485,73.576 151.115,73.476 151.500 M322.282 196.100 C 322.187 196.595,322.109 196.190,322.109 195.200 C 322.109 194.210,322.187 193.805,322.282 194.300 C 322.378 194.795,322.378 195.605,322.282 196.100 M321.487 206.695 C 321.395 207.303,321.317 206.900,321.314 205.800 C 321.311 204.700,321.387 204.203,321.482 204.695 C 321.577 205.186,321.579 206.086,321.487 206.695 M78.676 212.700 C 78.575 213.085,78.493 212.770,78.493 212.000 C 78.493 211.230,78.575 210.915,78.676 211.300 C 78.776 211.685,78.776 212.315,78.676 212.700 M320.687 217.095 C 320.595 217.703,320.517 217.300,320.514 216.200 C 320.511 215.100,320.587 214.603,320.682 215.095 C 320.777 215.586,320.779 216.486,320.687 217.095 M82.287 251.095 C 82.195 251.703,82.117 251.300,82.114 250.200 C 82.111 249.100,82.187 248.603,82.282 249.095 C 82.377 249.586,82.379 250.486,82.287 251.095 M317.083 254.495 C 316.987 254.993,316.905 254.680,316.901 253.800 C 316.896 252.920,316.975 252.513,317.075 252.895 C 317.175 253.278,317.179 253.998,317.083 254.495 M83.076 261.100 C 82.975 261.485,82.893 261.170,82.893 260.400 C 82.893 259.630,82.975 259.315,83.076 259.700 C 83.176 260.085,83.176 260.715,83.076 261.100 M316.282 264.500 C 316.187 264.995,316.109 264.590,316.109 263.600 C 316.109 262.610,316.187 262.205,316.282 262.700 C 316.378 263.195,316.378 264.005,316.282 264.500 M83.889 272.100 C 83.801 272.815,83.728 272.230,83.728 270.800 C 83.728 269.370,83.801 268.785,83.889 269.500 C 83.978 270.215,83.978 271.385,83.889 272.100 M86.692 301.091 C 86.605 301.921,86.533 301.340,86.531 299.800 C 86.529 298.260,86.600 297.581,86.689 298.291 C 86.777 299.001,86.779 300.261,86.692 301.091 M87.482 310.500 C 87.387 310.995,87.309 310.590,87.309 309.600 C 87.309 308.610,87.387 308.205,87.482 308.700 C 87.578 309.195,87.578 310.005,87.482 310.500 M308.283 352.895 C 308.187 353.393,308.105 353.080,308.101 352.200 C 308.096 351.320,308.175 350.913,308.275 351.295 C 308.375 351.678,308.379 352.398,308.283 352.895 " stroke="none" fill="#0493bb" fill-rule="evenodd"></path><path id="path3" d="M93.475 19.059 C 93.324 19.210,93.200 30.370,93.200 43.859 L 93.200 68.385 94.100 68.606 C 94.595 68.728,98.330 68.776,102.400 68.714 L 109.800 68.600 109.908 60.291 L 110.016 51.982 117.508 52.091 L 125.000 52.200 125.109 60.182 C 125.187 65.954,125.353 68.250,125.709 68.476 C 126.550 69.010,140.972 68.868,141.520 68.320 C 142.029 67.811,142.257 20.735,141.757 19.433 C 141.547 18.884,140.427 18.800,133.365 18.800 L 125.217 18.800 125.108 26.900 L 125.000 35.000 117.600 35.000 L 110.200 35.000 110.000 27.000 L 109.800 19.000 101.775 18.892 C 97.361 18.833,93.626 18.908,93.475 19.059 M149.200 26.987 L 149.200 35.182 156.300 35.291 L 163.400 35.400 163.504 51.893 L 163.609 68.387 164.504 68.607 C 164.997 68.728,168.730 68.776,172.800 68.714 L 180.200 68.600 180.400 52.000 L 180.600 35.400 187.800 35.200 L 195.000 35.000 195.000 27.000 L 195.000 19.000 172.100 18.897 L 149.200 18.793 149.200 26.987 M202.243 19.433 C 201.803 20.580,201.967 67.191,202.414 68.026 C 202.890 68.915,216.454 69.228,218.026 68.386 C 218.763 67.991,218.800 67.433,218.800 56.586 C 218.800 50.324,218.935 45.208,219.100 45.217 C 219.265 45.227,221.679 48.782,224.464 53.117 C 227.249 57.453,229.778 61.051,230.085 61.114 C 230.427 61.184,232.715 58.028,236.021 52.922 L 241.400 44.615 241.600 56.608 L 241.800 68.600 249.200 68.714 C 253.270 68.776,257.006 68.727,257.503 68.605 L 258.406 68.383 258.303 43.692 L 258.200 19.000 249.544 18.892 L 240.888 18.785 240.106 20.092 C 239.675 20.812,237.830 23.830,236.005 26.800 C 234.180 29.770,232.280 32.920,231.783 33.800 C 230.302 36.419,230.462 36.601,222.329 23.000 C 219.575 18.396,220.666 18.800,210.981 18.800 C 203.603 18.800,202.454 18.883,202.243 19.433 M266.667 19.067 C 266.520 19.213,266.400 30.352,266.400 43.820 L 266.400 68.307 267.300 68.548 C 268.666 68.914,305.725 68.835,306.309 68.465 C 306.699 68.217,306.792 66.281,306.709 60.171 L 306.600 52.200 295.000 52.000 L 283.400 51.800 283.296 35.300 L 283.191 18.800 275.062 18.800 C 270.591 18.800,266.813 18.920,266.667 19.067 " stroke="none" fill="#040506" fill-rule="evenodd"></path><path id="path4" d="M0.000 0.400 C 0.000 0.666,66.933 0.800,200.000 0.800 C 333.067 0.800,400.000 0.666,400.000 0.400 C 400.000 0.134,333.067 0.000,200.000 0.000 C 66.933 0.000,0.000 0.134,0.000 0.400 M142.834 43.633 C 142.856 59.606,143.002 68.168,143.239 67.400 C 143.637 66.113,143.438 19.305,143.034 18.900 C 142.905 18.772,142.815 29.902,142.834 43.633 M284.400 35.400 C 284.400 44.383,284.498 51.635,284.618 51.516 C 284.885 51.249,284.859 19.526,284.592 19.258 C 284.486 19.153,284.400 26.417,284.400 35.400 M123.917 26.800 C 123.853 30.761,123.935 34.001,124.100 34.000 C 124.265 34.000,124.400 30.760,124.400 26.800 C 124.400 22.840,124.318 19.600,124.217 19.600 C 124.117 19.600,123.982 22.840,123.917 26.800 M150.905 36.687 C 151.514 36.779,152.414 36.777,152.905 36.682 C 153.397 36.587,152.900 36.511,151.800 36.514 C 150.700 36.517,150.297 36.595,150.905 36.687 M156.700 36.695 C 157.855 36.776,159.745 36.776,160.900 36.695 C 162.055 36.614,161.110 36.548,158.800 36.548 C 156.490 36.548,155.545 36.614,156.700 36.695 M181.560 37.700 C 181.774 38.962,181.785 38.968,181.916 37.910 L 182.051 36.820 188.326 36.699 L 194.600 36.578 187.969 36.489 L 181.339 36.400 181.560 37.700 M219.264 57.600 C 219.306 66.821,219.379 68.235,219.645 65.000 C 219.826 62.800,219.889 58.320,219.784 55.044 C 219.680 51.768,219.747 48.888,219.932 48.644 C 220.125 48.390,220.043 47.771,219.741 47.200 C 219.292 46.352,219.220 47.931,219.264 57.600 M123.924 53.100 C 123.856 53.265,123.896 56.820,124.013 61.000 L 124.227 68.600 124.313 60.700 C 124.391 53.587,124.317 52.144,123.924 53.100 M330.924 96.200 C 330.926 97.520,331.001 98.012,331.090 97.293 C 331.179 96.574,331.177 95.494,331.086 94.893 C 330.995 94.292,330.922 94.880,330.924 96.200 M68.909 102.400 C 68.909 103.390,68.987 103.795,69.082 103.300 C 69.178 102.805,69.178 101.995,69.082 101.500 C 68.987 101.005,68.909 101.410,68.909 102.400 M330.101 106.200 C 330.105 107.080,330.187 107.393,330.283 106.895 C 330.379 106.398,330.375 105.678,330.275 105.295 C 330.175 104.913,330.096 105.320,330.101 106.200 M329.301 117.000 C 329.305 117.880,329.387 118.193,329.483 117.695 C 329.579 117.198,329.575 116.478,329.475 116.095 C 329.375 115.713,329.296 116.120,329.301 117.000 M70.524 122.200 C 70.526 123.520,70.601 124.012,70.690 123.293 C 70.779 122.574,70.777 121.494,70.686 120.893 C 70.595 120.292,70.522 120.880,70.524 122.200 M326.528 146.000 C 326.528 147.430,326.601 148.015,326.689 147.300 C 326.778 146.585,326.778 145.415,326.689 144.700 C 326.601 143.985,326.528 144.570,326.528 146.000 M73.293 150.800 C 73.293 151.570,73.375 151.885,73.476 151.500 C 73.576 151.115,73.576 150.485,73.476 150.100 C 73.375 149.715,73.293 150.030,73.293 150.800 M322.109 195.200 C 322.109 196.190,322.187 196.595,322.282 196.100 C 322.378 195.605,322.378 194.795,322.282 194.300 C 322.187 193.805,322.109 194.210,322.109 195.200 M321.314 205.800 C 321.317 206.900,321.395 207.303,321.487 206.695 C 321.579 206.086,321.577 205.186,321.482 204.695 C 321.387 204.203,321.311 204.700,321.314 205.800 M78.493 212.000 C 78.493 212.770,78.575 213.085,78.676 212.700 C 78.776 212.315,78.776 211.685,78.676 211.300 C 78.575 210.915,78.493 211.230,78.493 212.000 M320.514 216.200 C 320.517 217.300,320.595 217.703,320.687 217.095 C 320.779 216.486,320.777 215.586,320.682 215.095 C 320.587 214.603,320.511 215.100,320.514 216.200 M82.114 250.200 C 82.117 251.300,82.195 251.703,82.287 251.095 C 82.379 250.486,82.377 249.586,82.282 249.095 C 82.187 248.603,82.111 249.100,82.114 250.200 M316.901 253.800 C 316.905 254.680,316.987 254.993,317.083 254.495 C 317.179 253.998,317.175 253.278,317.075 252.895 C 316.975 252.513,316.896 252.920,316.901 253.800 M82.893 260.400 C 82.893 261.170,82.975 261.485,83.076 261.100 C 83.176 260.715,83.176 260.085,83.076 259.700 C 82.975 259.315,82.893 259.630,82.893 260.400 M316.109 263.600 C 316.109 264.590,316.187 264.995,316.282 264.500 C 316.378 264.005,316.378 263.195,316.282 262.700 C 316.187 262.205,316.109 262.610,316.109 263.600 M83.728 270.800 C 83.728 272.230,83.801 272.815,83.889 272.100 C 83.978 271.385,83.978 270.215,83.889 269.500 C 83.801 268.785,83.728 269.370,83.728 270.800 M86.531 299.800 C 86.533 301.340,86.605 301.921,86.692 301.091 C 86.779 300.261,86.777 299.001,86.689 298.291 C 86.600 297.581,86.529 298.260,86.531 299.800 M87.309 309.600 C 87.309 310.590,87.387 310.995,87.482 310.500 C 87.578 310.005,87.578 309.195,87.482 308.700 C 87.387 308.205,87.309 308.610,87.309 309.600 M308.101 352.200 C 308.105 353.080,308.187 353.393,308.283 352.895 C 308.379 352.398,308.375 351.678,308.275 351.295 C 308.175 350.913,308.096 351.320,308.101 352.200 M0.000 399.600 C 0.000 399.866,66.933 400.000,200.000 400.000 C 333.067 400.000,400.000 399.866,400.000 399.600 C 400.000 399.334,333.067 399.200,200.000 399.200 C 66.933 399.200,0.000 399.334,0.000 399.600 " stroke="none" fill="#0b9cc4" fill-rule="evenodd"></path></g></svg>