<svg id="svg" version="1.1" xmlns="http://www.w3.org/2000/svg" xmlns:xlink="http://www.w3.org/1999/xlink" width="400" height="400" viewBox="0, 0, 400,400"><g id="svgg"><path id="path0" d="M164.050 135.754 C 135.046 151.735,129.041 155.161,129.550 155.439 C 129.889 155.624,145.712 164.745,164.711 175.708 C 183.710 186.671,199.402 195.684,199.581 195.737 C 200.417 195.984,270.372 155.186,269.813 154.777 C 268.428 153.764,200.035 116.337,199.627 116.369 C 199.374 116.389,183.364 125.112,164.050 135.754 M124.333 202.628 L 124.333 240.923 158.936 259.947 C 177.968 270.411,193.793 279.069,194.103 279.188 C 194.630 279.391,194.667 276.995,194.667 242.075 L 194.667 204.745 159.658 184.539 C 140.403 173.426,124.578 164.333,124.491 164.333 C 124.404 164.333,124.333 181.566,124.333 202.628 M240.000 184.461 L 205.167 204.576 205.082 241.983 C 205.028 265.866,205.113 279.350,205.318 279.278 C 205.495 279.217,221.321 270.546,240.486 260.009 L 275.333 240.852 275.333 202.592 C 275.333 181.550,275.221 164.336,275.083 164.339 C 274.946 164.342,259.158 173.397,240.000 184.461 " stroke="none" fill="#1c7cc4" fill-rule="evenodd"></path><path id="path1" d="M126.917 76.420 L 54.333 117.483 54.349 200.158 L 54.364 282.833 126.923 323.833 C 166.830 346.383,199.715 364.833,200.000 364.833 C 200.286 364.833,233.170 346.383,273.077 323.833 L 345.635 282.833 345.651 200.159 L 345.667 117.486 273.033 76.409 C 233.085 53.818,200.197 35.339,199.950 35.345 C 199.702 35.352,166.837 53.835,126.917 76.420 M194.659 83.083 L 194.651 107.500 156.778 128.298 C 124.621 145.957,118.790 149.051,118.143 148.798 C 114.461 147.360,77.038 125.121,77.631 124.723 C 78.811 123.931,194.159 58.707,194.417 58.687 C 194.554 58.676,194.663 69.654,194.659 83.083 M264.072 91.934 C 296.103 110.029,322.275 124.956,322.231 125.106 C 322.135 125.435,281.307 149.078,280.833 149.079 C 280.650 149.079,263.475 139.707,242.667 128.252 L 204.833 107.425 204.748 83.009 C 204.667 59.840,204.692 58.605,205.248 58.815 C 205.570 58.936,232.041 73.840,264.072 91.934 M234.674 135.179 C 253.868 145.727,269.822 154.540,270.128 154.764 C 270.601 155.110,265.522 158.147,235.758 175.316 C 216.549 186.396,200.591 195.607,200.295 195.783 C 199.780 196.090,128.981 155.628,129.011 155.045 C 129.020 154.873,199.171 116.119,199.638 116.027 C 199.714 116.012,215.480 124.630,234.674 135.179 M93.145 146.035 L 114.000 158.071 114.000 201.805 L 114.000 245.539 93.250 257.490 C 81.837 264.063,72.387 269.500,72.250 269.573 C 72.112 269.646,72.000 239.172,72.000 201.853 C 72.000 164.534,72.065 134.000,72.145 134.000 C 72.225 134.000,81.675 139.416,93.145 146.035 M327.667 201.833 C 327.667 239.142,327.595 269.667,327.507 269.667 C 327.297 269.667,286.293 246.019,285.750 245.585 C 285.420 245.321,285.334 236.147,285.337 201.709 L 285.341 158.167 306.254 146.091 C 317.756 139.450,327.279 134.013,327.417 134.008 C 327.554 134.004,327.667 164.525,327.667 201.833 M159.442 184.226 C 178.724 195.350,194.610 204.612,194.745 204.809 C 195.357 205.703,195.032 279.750,194.417 279.517 C 194.096 279.395,178.121 270.660,158.917 260.105 L 124.000 240.915 124.000 202.457 C 124.000 181.306,124.086 164.000,124.192 164.000 C 124.297 164.000,140.160 173.102,159.442 184.226 M275.667 202.329 L 275.667 240.657 274.417 241.457 C 272.801 242.490,205.130 279.667,204.865 279.667 C 204.754 279.667,204.702 262.774,204.749 242.127 L 204.833 204.588 239.992 184.294 C 259.328 173.132,275.266 164.000,275.408 164.000 C 275.550 164.000,275.667 181.248,275.667 202.329 M159.269 271.640 L 194.667 291.114 194.667 316.402 L 194.667 341.690 193.917 341.301 C 193.313 340.987,133.649 307.284,89.222 282.159 C 84.302 279.377,80.275 276.979,80.274 276.830 C 80.270 276.399,122.777 251.972,123.353 252.074 C 123.639 252.125,139.801 260.930,159.269 271.640 M298.195 264.396 L 319.678 276.792 318.756 277.361 C 317.179 278.335,205.555 341.397,205.098 341.572 C 204.491 341.805,204.457 291.515,205.063 291.103 C 206.428 290.175,275.917 252.037,276.272 252.020 C 276.514 252.009,286.379 257.578,298.195 264.396 " stroke="none" fill="#fbfbfb" fill-rule="evenodd"></path><path id="path2" d="M136.108 91.774 C 103.992 109.957,77.644 124.908,77.556 125.000 C 77.467 125.092,86.687 130.530,98.043 137.085 L 118.691 149.004 156.679 128.110 L 194.667 107.217 194.667 82.942 C 194.667 69.591,194.629 58.677,194.583 58.690 C 194.537 58.704,168.224 73.591,136.108 91.774 M205.081 83.161 L 205.167 107.396 242.978 128.180 C 263.774 139.611,280.874 148.921,280.978 148.869 C 286.601 146.051,321.935 125.132,321.599 124.820 C 321.164 124.415,206.333 59.440,205.463 59.106 C 205.064 58.953,205.008 62.495,205.081 83.161 M72.333 201.838 C 72.333 266.043,72.362 269.341,72.917 269.032 C 73.237 268.853,82.575 263.463,93.667 257.055 L 113.833 245.403 113.833 201.802 L 113.833 158.201 94.333 146.920 C 83.608 140.715,74.271 135.342,73.583 134.979 L 72.333 134.320 72.333 201.838 M306.257 146.276 L 285.681 158.167 285.757 201.821 L 285.833 245.475 305.333 256.754 C 316.058 262.958,325.396 268.330,326.083 268.691 L 327.333 269.347 327.333 201.840 C 327.333 164.711,327.221 134.345,327.083 134.360 C 326.946 134.374,317.574 139.737,306.257 146.276 M124.080 202.583 C 124.123 223.804,124.198 234.942,124.246 227.333 C 124.475 190.878,124.476 164.000,124.250 164.000 C 124.112 164.000,124.036 181.362,124.080 202.583 M204.889 204.556 C 204.580 204.864,204.608 279.667,204.917 279.667 C 205.054 279.667,205.167 262.717,205.167 242.000 C 205.167 221.283,205.154 204.333,205.139 204.333 C 205.124 204.333,205.011 204.433,204.889 204.556 M101.719 264.396 C 89.935 271.196,80.414 276.865,80.563 276.994 C 80.985 277.361,194.242 341.333,194.469 341.333 C 194.580 341.333,194.632 330.063,194.585 316.289 L 194.500 291.245 161.833 273.271 C 143.867 263.386,127.812 254.563,126.156 253.665 L 123.146 252.033 101.719 264.396 M240.598 271.612 L 205.029 291.167 205.014 316.250 C 205.007 330.046,205.060 341.333,205.133 341.333 C 205.245 341.333,319.030 277.046,319.235 276.867 C 319.317 276.796,276.389 251.987,276.257 252.028 C 276.207 252.044,260.161 260.856,240.598 271.612 " stroke="none" fill="#8cd3fb" fill-rule="evenodd"></path><path id="path3" d="M204.744 82.897 C 204.702 96.315,204.779 107.364,204.917 107.449 C 205.143 107.589,205.140 89.686,204.910 67.167 C 204.862 62.400,204.787 69.479,204.744 82.897 M327.167 201.833 C 327.167 239.142,327.279 269.667,327.417 269.667 C 327.554 269.667,327.667 239.142,327.667 201.833 C 327.667 164.525,327.554 134.000,327.417 134.000 C 327.279 134.000,327.167 164.525,327.167 201.833 M285.495 201.667 C 285.495 225.775,285.535 235.637,285.583 223.583 C 285.632 211.529,285.632 191.804,285.583 179.750 C 285.535 167.696,285.495 177.558,285.495 201.667 M275.494 202.333 C 275.494 223.508,275.534 232.171,275.583 221.583 C 275.632 210.996,275.632 193.671,275.583 183.083 C 275.534 172.496,275.494 181.158,275.494 202.333 M194.828 242.333 C 194.828 262.958,194.868 271.396,194.917 261.083 C 194.966 250.771,194.966 233.896,194.917 223.583 C 194.868 213.271,194.828 221.708,194.828 242.333 M204.744 316.417 C 204.702 330.304,204.779 341.667,204.917 341.667 C 205.143 341.667,205.141 323.610,204.911 300.167 C 204.862 295.217,204.787 302.529,204.744 316.417 " stroke="none" fill="#b6e0f8" fill-rule="evenodd"></path><path id="path4" d="M72.163 201.833 C 72.163 239.233,72.202 254.484,72.250 235.723 C 72.298 216.963,72.298 186.363,72.250 167.723 C 72.202 149.084,72.163 164.433,72.163 201.833 " stroke="none" fill="#9ddcfc" fill-rule="evenodd"></path></g></svg>